<svg xmlns:xlink="http://www.w3.org/1999/xlink" version="1.1" style="font-family:'lucida grande', 'lucida sans unicode', arial, helvetica, sans-serif;font-size:12px;" xmlns="http://www.w3.org/2000/svg" width="2160" height="557"><desc>Created with Highcharts 4.2.5</desc><defs><clipPath id="highcharts-5"><rect x="0" y="0" width="2047" height="454"></rect></clipPath></defs><rect x="0" y="0" width="2160" height="557" fill="#FFFFFF" class=" highcharts-background"></rect><g class="highcharts-grid"></g><g class="highcharts-grid"><path fill="none" d="M 88 517.5 L 2135 517.5" stroke="#D8D8D8" stroke-width="1" opacity="1"></path><path fill="none" d="M 88 441.5 L 2135 441.5" stroke="#D8D8D8" stroke-width="1" opacity="1"></path><path fill="none" d="M 88 366.5 L 2135 366.5" stroke="#D8D8D8" stroke-width="1" opacity="1"></path><path fill="none" d="M 88 290.5 L 2135 290.5" stroke="#D8D8D8" stroke-width="1" opacity="1"></path><path fill="none" d="M 88 214.5 L 2135 214.5" stroke="#D8D8D8" stroke-width="1" opacity="1"></path><path fill="none" d="M 88 139.5 L 2135 139.5" stroke="#D8D8D8" stroke-width="1" opacity="1"></path><path fill="none" d="M 88 63.5 L 2135 63.5" stroke="#D8D8D8" stroke-width="1" opacity="1"></path></g><g class="highcharts-axis"><path fill="none" d="M 101.5 517 L 101.5 527" stroke="#C0D0E0" stroke-width="1" opacity="1"></path><path fill="none" d="M 219.5 517 L 219.5 527" stroke="#C0D0E0" stroke-width="1" opacity="1"></path><path fill="none" d="M 338.5 517 L 338.5 527" stroke="#C0D0E0" stroke-width="1" opacity="1"></path><path fill="none" d="M 455.5 517 L 455.5 527" stroke="#C0D0E0" stroke-width="1" opacity="1"></path><path fill="none" d="M 575.5 517 L 575.5 527" stroke="#C0D0E0" stroke-width="1" opacity="1"></path><path fill="none" d="M 692.5 517 L 692.5 527" stroke="#C0D0E0" stroke-width="1" opacity="1"></path><path fill="none" d="M 812.5 517 L 812.5 527" stroke="#C0D0E0" stroke-width="1" opacity="1"></path><path fill="none" d="M 930.5 517 L 930.5 527" stroke="#C0D0E0" stroke-width="1" opacity="1"></path><path fill="none" d="M 1049.5 517 L 1049.5 527" stroke="#C0D0E0" stroke-width="1" opacity="1"></path><path fill="none" d="M 1166.5 517 L 1166.5 527" stroke="#C0D0E0" stroke-width="1" opacity="1"></path><path fill="none" d="M 1286.5 517 L 1286.5 527" stroke="#C0D0E0" stroke-width="1" opacity="1"></path><path fill="none" d="M 1403.5 517 L 1403.5 527" stroke="#C0D0E0" stroke-width="1" opacity="1"></path><path fill="none" d="M 1523.5 517 L 1523.5 527" stroke="#C0D0E0" stroke-width="1" opacity="1"></path><path fill="none" d="M 1640.5 517 L 1640.5 527" stroke="#C0D0E0" stroke-width="1" opacity="1"></path><path fill="none" d="M 1759.5 517 L 1759.5 527" stroke="#C0D0E0" stroke-width="1" opacity="1"></path><path fill="none" d="M 1877.5 517 L 1877.5 527" stroke="#C0D0E0" stroke-width="1" opacity="1"></path><path fill="none" d="M 1997.5 517 L 1997.5 527" stroke="#C0D0E0" stroke-width="1" opacity="1"></path><path fill="none" d="M 2114.5 517 L 2114.5 527" stroke="#C0D0E0" stroke-width="1" opacity="1"></path><path fill="none" d="M 88 517.5 L 2135 517.5" stroke="#C0D0E0" stroke-width="1"></path></g><g class="highcharts-axis"><text x="24.765625" text-anchor="middle" transform="translate(0,0) rotate(270 24.765625 290)" class=" highcharts-yaxis-title" style="color:#707070;fill:#707070;" y="290">USD</text></g><g class="highcharts-series-group"><g class="highcharts-series highcharts-series-0" transform="translate(88,63) scale(1 1)" clip-path="url(#highcharts-5)"><path fill="none" d="M 20.06862745098 454 L 21.365888436823 454 L 22.663149422665 454 L 23.960410408507 454 L 25.25767139435 454 L 26.554932380192 454 L 27.852193366034 454 L 29.149454351876 454 L 30.446715337719 454 L 31.743976323561 454 L 33.041237309403 454 L 34.338498295246 454 L 35.635759281088 454 L 36.93302026693 454 L 38.230281252773 454 L 39.527542238615 454 L 40.824803224457 454 L 42.1220642103 454 L 43.419325196142 454 L 44.716586181984 454 L 46.013847167826 454 L 47.311108153669 454 L 48.608369139511 454 L 49.905630125353 454 L 51.202891111196 454 L 52.500152097038 454 L 53.79741308288 454 L 55.094674068723 454 L 56.391935054565 454 L 57.689196040407 454 L 58.986457026249 454 L 60.283718012092 454 L 61.580978997934 454 L 62.878239983776 454 L 64.175500969619 454 L 65.472761955461 454 L 66.770022941303 454 L 68.067283927146 454 L 69.364544912988 454 L 70.66180589883 454 L 71.959066884672 454 L 73.256327870515 454 L 74.553588856357 454 L 75.850849842199 454 L 77.148110828042 454 L 78.445371813884 454 L 79.742632799726 454 L 81.039893785569 454 L 82.337154771411 454 L 83.634415757253 454 L 84.931676743095 454 L 86.228937728938 454 L 87.52619871478 454 L 88.823459700622 454 L 90.120720686465 454 L 91.417981672307 454 L 92.715242658149 454 L 94.012503643992 454 L 95.309764629834 454 L 96.607025615676 454 L 97.904286601518 454 L 99.201547587361 454 L 100.4988085732 454 L 101.79606955905 454 L 103.09333054489 454 L 104.39059153073 454 L 105.68785251657 454 L 106.98511350241 454 L 108.28237448826 454 L 109.5796354741 454 L 110.87689645994 454 L 112.17415744578 454 L 113.47141843163 454 L 114.76867941747 454 L 116.06594040331 454 L 117.36320138915 454 L 118.660462375 454 L 119.95772336084 454 L 121.25498434668 454 L 122.55224533252 454 L 123.84950631836 454 L 125.14676730421 454 L 126.44402829005 454 L 127.74128927589 454 L 129.03855026173 454 L 130.33581124758 454 L 131.63307223342 454 L 132.93033321926 454 L 134.2275942051 454 L 135.52485519095 454 L 136.82211617679 454 L 138.11937716263 454 L 139.41663814847 454 L 140.71389913431 454 L 142.01116012016 454 L 143.308421106 454 L 144.60568209184 454 L 145.90294307768 454 L 147.20020406353 454 L 148.49746504937 454 L 149.79472603521 454 L 151.09198702105 454 L 152.3892480069 454 L 153.68650899274 454 L 154.98376997858 454 L 156.28103096442 454 L 157.57829195026 454 L 158.87555293611 454 L 160.17281392195 454 L 161.47007490779 454 L 162.76733589363 454 L 164.06459687948 454 L 165.36185786532 454 L 166.65911885116 454 L 167.956379837 454 L 169.25364082284 454 L 170.55090180869 454 L 171.84816279453 454 L 173.14542378037 454 L 174.44268476621 454 L 175.73994575206 454 L 177.0372067379 454 L 178.33446772374 454 L 179.63172870958 454 L 180.92898969543 454 L 182.22625068127 454 L 183.52351166711 454 L 184.82077265295 454 L 186.11803363879 454 L 187.41529462464 454 L 188.71255561048 454 L 190.00981659632 454 L 191.30707758216 454 L 192.60433856801 454 L 193.90159955385 454 L 195.19886053969 454 L 196.49612152553 454 L 197.79338251138 454 L 199.09064349722 454 L 200.38790448306 454 L 201.6851654689 454 L 202.98242645474 454 L 204.27968744059 454 L 205.57694842643 454 L 206.87420941227 454 L 208.17147039811 454 L 209.46873138396 454 L 210.7659923698 454 L 212.06325335564 454 L 213.36051434148 454 L 214.65777532733 454 L 215.95503631317 454 L 217.25229729901 454 L 218.54955828485 454 L 219.84681927069 454 L 221.14408025654 454 L 222.44134124238 454 L 223.73860222822 454 L 225.03586321406 454 L 226.33312419991 454 L 227.63038518575 454 L 228.92764617159 454 L 230.22490715743 454 L 231.52216814328 454 L 232.81942912912 454 L 234.11669011496 454 L 235.4139511008 454 L 236.71121208664 454 L 238.00847307249 454 L 239.30573405833 454 L 240.60299504417 454 L 241.90025603001 454 L 243.19751701586 454 L 244.4947780017 454 L 245.79203898754 454 L 247.08929997338 454 L 248.38656095923 454 L 249.68382194507 454 L 250.98108293091 454 L 252.27834391675 454 L 253.57560490259 454 L 254.87286588844 454 L 256.17012687428 454 L 257.46738786012 454 L 258.76464884596 454 L 260.06190983181 454 L 261.35917081765 454 L 262.65643180349 454 L 263.95369278933 454 L 265.25095377518 454 L 266.54821476102 454 L 267.84547574686 454 L 269.1427367327 454 L 270.43999771854 454 L 271.73725870439 454 L 273.03451969023 454 L 274.33178067607 454 L 275.62904166191 454 L 276.92630264776 454 L 278.2235636336 454 L 279.52082461944 454 L 280.81808560528 454 L 282.11534659113 454 L 283.41260757697 454 L 284.70986856281 454 L 286.00712954865 454 L 287.30439053449 454 L 288.60165152034 454 L 289.89891250618 454 L 291.19617349202 454 L 292.49343447786 454 L 293.79069546371 454 L 295.08795644955 454 L 296.38521743539 454 L 297.68247842123 454 L 298.97973940708 454 L 300.27700039292 454 L 301.57426137876 454 L 302.8715223646 454 L 304.16878335044 454 L 305.46604433629 454 L 306.76330532213 454 L 308.06056630797 454 L 309.35782729381 454 L 310.65508827966 454 L 311.9523492655 454 L 313.24961025134 454 L 314.54687123718 454 L 315.84413222302 454 L 317.14139320887 454 L 318.43865419471 454 L 319.73591518055 454 L 321.03317616639 454 L 322.33043715224 454 L 323.62769813808 454 L 324.92495912392 454 L 326.22222010976 454 L 327.51948109561 454 L 328.81674208145 454 L 330.11400306729 454 L 331.41126405313 454 L 332.70852503897 454 L 334.00578602482 454 L 335.30304701066 454 L 336.6003079965 454 L 337.89756898234 454 L 339.19482996819 454 L 340.49209095403 454 L 341.78935193987 454 L 343.08661292571 454 L 344.38387391156 454 L 345.6811348974 454 L 346.97839588324 454 L 348.27565686908 454 L 349.57291785492 454 L 350.87017884077 454 L 352.16743982661 454 L 353.46470081245 454 L 354.76196179829 454 L 356.05922278414 454 L 357.35648376998 454 L 358.65374475582 454 L 359.95100574166 454 L 361.24826672751 454 L 362.54552771335 454 L 363.84278869919 454 L 365.14004968503 454 L 366.43731067087 454 L 367.73457165672 454 L 369.03183264256 454 L 370.3290936284 454 L 371.62635461424 454 L 372.92361560009 454 L 374.22087658593 454 L 375.51813757177 454 L 376.81539855761 454 L 378.11265954346 454 L 379.4099205293 454 L 380.70718151514 454 L 382.00444250098 454 L 383.30170348682 454 L 384.59896447267 454 L 385.89622545851 454 L 387.19348644435 454 L 388.49074743019 454 L 389.78800841604 454 L 391.08526940188 454 L 392.38253038772 454 L 393.67979137356 454 L 394.97705235941 454 L 396.27431334525 454 L 397.57157433109 454 L 398.86883531693 453.9984866666667 L 400.16609630277 453.99546 L 401.46335728862 453.99243333333334 L 402.76061827446 453.99243333333334 L 404.0578792603 453.99243333333334 L 405.35514024614 453.99243333333334 L 406.65240123199 453.99243333333334 L 407.94966221783 453.99243333333334 L 409.24692320367 453.99243333333334 L 410.54418418951 453.99243333333334 L 411.84144517536 453.99243333333334 L 413.1387061612 453.99243333333334 L 414.43596714704 453.99243333333334 L 415.73322813288 453.99243333333334 L 417.03048911872 453.99243333333334 L 418.32775010457 453.98940666666664 L 419.62501109041 453.99092 L 420.92227207625 453.99092 L 422.21953306209 453.99243333333334 L 423.51679404794 453.99243333333334 L 424.81405503378 453.99243333333334 L 426.11131601962 453.99243333333334 L 427.40857700546 453.99243333333334 L 428.70583799131 453.99243333333334 L 430.00309897715 453.99243333333334 L 431.30035996299 453.99243333333334 L 432.59762094883 453.99243333333334 L 433.89488193467 453.98940666666664 L 435.19214292052 453.9878933333333 L 436.48940390636 453.98638 L 437.7866648922 453.98638 L 439.08392587804 453.98638 L 440.38118686389 453.98638 L 441.67844784973 453.9878933333333 L 442.97570883557 453.9848666666667 L 444.27296982141 453.98184 L 445.57023080726 453.97881333333333 L 446.8674917931 453.9773 L 448.16475277894 453.9757866666667 L 449.46201376478 453.9742733333333 L 450.75927475062 453.9712466666667 L 452.05653573647 453.96368 L 453.35379672231 453.95762666666667 L 454.65105770815 453.95762666666667 L 455.94831869399 453.9621666666667 L 457.24557967984 453.96519333333333 L 458.54284066568 453.96368 L 459.84010165152 453.96368 L 461.13736263736 453.96368 L 462.4346236232 453.96368 L 463.73188460905 453.96368 L 465.02914559489 453.96368 L 466.32640658073 453.96368 L 467.62366756657 453.96519333333333 L 468.92092855242 453.96670666666665 L 470.21818953826 453.96822 L 471.5154505241 453.96973333333335 L 472.81271150994 453.96973333333335 L 474.10997249579 453.9712466666667 L 475.40723348163 453.9712466666667 L 476.70449446747 453.9712466666667 L 478.00175545331 453.96973333333335 L 479.29901643915 453.96822 L 480.596277425 453.96670666666665 L 481.89353841084 453.96670666666665 L 483.19079939668 453.96670666666665 L 484.48806038252 453.96670666666665 L 485.78532136837 453.96519333333333 L 487.08258235421 453.96368 L 488.37984334005 453.9621666666667 L 489.67710432589 453.9621666666667 L 490.97436531174 453.9621666666667 L 492.27162629758 453.9606533333333 L 493.56888728342 453.95914 L 494.86614826926 453.95762666666667 L 496.1634092551 453.95308666666665 L 497.46067024095 453.95006 L 498.75793122679 453.9485466666667 L 500.05519221263 453.95157333333333 L 501.35245319847 453.95006 L 502.64971418432 453.9470333333333 L 503.94697517016 453.94400666666667 L 505.244236156 453.94400666666667 L 506.54149714184 453.94400666666667 L 507.83875812769 453.93038666666666 L 509.13601911353 453.91525333333334 L 510.43328009937 453.89558 L 511.73054108521 453.88801333333333 L 513.02780207105 453.8834733333333 L 514.3250630569 453.87590666666665 L 515.62232404274 453.86834 L 516.91958502858 453.8607733333333 L 518.21684601442 453.86228666666665 L 519.51410700027 453.8638 L 520.81136798611 453.8713666666667 L 522.10862897195 453.87742 L 523.40588995779 453.87893333333335 L 524.70315094364 453.87742 L 526.00041192948 453.87439333333333 L 527.29767291532 453.87590666666665 L 528.59493390116 453.87893333333335 L 529.892194887 453.88044666666667 L 531.18945587285 453.88196 L 532.48671685869 453.8834733333333 L 533.78397784453 453.8834733333333 L 535.08123883037 453.8834733333333 L 536.37849981622 453.8834733333333 L 537.67576080206 453.88801333333333 L 538.9730217879 453.89255333333335 L 540.27028277374 453.8940666666667 L 541.56754375959 453.89255333333335 L 542.86480474543 453.88801333333333 L 544.16206573127 453.88801333333333 L 545.45932671711 453.89104 L 546.75658770295 453.89558 L 548.0538486888 453.8970933333333 L 549.35110967464 453.90012 L 550.64837066048 453.90163333333334 L 551.94563164632 453.90163333333334 L 553.24289263217 453.8970933333333 L 554.54015361801 453.88952666666665 L 555.83741460385 453.87590666666665 L 557.13467558969 453.86228666666665 L 558.43193657554 453.85320666666667 L 559.72919756138 453.84564 L 561.02645854722 453.8184 L 562.32371953306 453.7957 L 563.6209805189 453.75181333333336 L 564.91824150475 453.6791733333333 L 566.21550249059 453.58988666666664 L 567.51276347643 453.5354066666667 L 568.81002446227 453.53086666666667 L 570.10728544812 453.53086666666667 L 571.40454643396 453.48546666666664 L 572.7018074198 453.3795333333333 L 573.99906840564 453.16766666666666 L 575.29632939149 452.99666 L 576.59359037733 452.90586 L 577.89085136317 452.9679066666667 L 579.18811234901 453.05114 L 580.48537333485 453.08594666666664 L 581.7826343207 453.03449333333333 L 583.07989530654 452.93764 L 584.37715629238 452.8771066666667 L 585.67441727822 452.83170666666666 L 586.97167826407 452.67583333333334 L 588.26893924991 452.2672333333333 L 589.56620023575 451.84804 L 590.86346122159 451.0157066666667 L 592.16072220744 450.3967533333333 L 593.45798319328 450.15462 L 594.75524417912 450.6388866666667 L 596.05250516496 451.19428 L 597.3497661508 451.48332666666664 L 598.64702713665 451.6603866666667 L 599.94428812249 451.83896 L 601.24154910833 451.87679333333335 L 602.53881009417 451.81928666666664 L 603.83607108002 451.7375666666667 L 605.13333206586 451.73454 L 606.4305930517 451.80566666666664 L 607.72785403754 451.8919266666667 L 609.02511502338 451.92976 L 610.32237600923 451.96305333333333 L 611.61963699507 451.96305333333333 L 612.91689798091 452.0478 L 614.21415896675 452.09622666666667 L 615.5114199526 452.15827333333334 L 616.80868093844 452.16584 L 618.10594192428 452.17492 L 619.40320291012 452.17946 L 620.70046389597 452.17340666666666 L 621.99772488181 452.1613 L 623.29498586765 452.16281333333336 L 624.59224685349 452.16281333333336 L 625.88950783933 452.19610666666665 L 627.18676882518 452.26572 L 628.48402981102 452.39738 L 629.78129079686 452.5774666666667 L 631.0785517827 452.6168133333333 L 632.37581276855 452.66221333333334 L 633.67307375439 452.60622 L 634.97033474023 452.59714 L 636.26759572607 452.5411466666667 L 637.56485671192 452.49120666666664 L 638.86211769776 452.49423333333334 L 640.1593786836 452.49574666666666 L 641.45663966944 452.5472 L 642.75390065528 452.6440533333333 L 644.05116164113 452.73636666666664 L 645.34842262697 452.81808666666666 L 646.64568361281 452.8483533333333 L 647.94294459865 452.88316 L 649.2402055845 452.9300733333333 L 650.53746657034 452.9936333333333 L 651.83472755618 453.0677866666667 L 653.13198854202 453.11016 L 654.42924952787 453.16615333333334 L 655.72651051371 453.2387933333333 L 657.02377149955 453.29781333333335 L 658.32103248539 453.26754666666665 L 659.61829347123 453.2387933333333 L 660.91555445708 453.2266866666667 L 662.21281544292 453.28116666666665 L 663.51007642876 453.319 L 664.8073374146 453.3295933333333 L 666.10459840045 453.33716 L 667.40185938629 453.33110666666664 L 668.69912037213 453.35078 L 669.99638135797 453.37802 L 671.29364234382 453.41282666666666 L 672.59090332966 453.43855333333335 L 673.8881643155 453.4552 L 675.18542530134 453.4718466666667 L 676.48268628718 453.53843333333333 L 677.77994727303 453.60350666666665 L 679.07720825887 453.6262066666667 L 680.37446924471 453.6110733333333 L 681.67173023055 453.59442666666666 L 682.9689912164 453.5853466666667 L 684.26625220224 453.56718666666666 L 685.56351318808 453.5490266666667 L 686.86077417392 453.5611333333333 L 688.15803515977 453.57778 L 689.45529614561 453.58988666666664 L 690.75255713145 453.5989666666667 L 692.04981811729 453.6019933333333 L 693.34707910313 453.60350666666665 L 694.64434008898 453.62166666666667 L 695.94160107482 453.64588 L 697.23886206066 453.67463333333336 L 698.5361230465 453.6882533333333 L 699.83338403235 453.6927933333333 L 701.13064501819 453.68522666666667 L 702.42790600403 453.67766 L 703.72516698987 453.65344666666664 L 705.02242797572 453.62772 L 706.31968896156 453.60502 L 707.6169499474 453.60350666666665 L 708.91421093324 453.60502 L 710.21147191908 453.60653333333335 L 711.50873290493 453.58988666666664 L 712.80599389077 453.58232 L 714.10325487661 453.5747533333333 L 715.40051586245 453.57929333333334 L 716.6977768483 453.54448666666667 L 717.99503783414 453.5081666666667 L 719.29229881998 453.4779 L 720.58955980582 453.4673066666667 L 721.88682079167 453.46276666666665 L 723.18408177751 453.44763333333333 L 724.48134276335 453.41585333333336 L 725.77860374919 453.35986 L 727.07586473503 453.28722 L 728.37312572088 453.1994466666667 L 729.67038670672 453.1222666666667 L 730.96764769256 453.07838 L 732.2649086784 453.08594666666664 L 733.56216966425 453.10108 L 734.85943065009 453.0980533333333 L 736.15669163593 453.11167333333333 L 737.45395262177 453.12378 L 738.75121360762 453.15253333333334 L 740.04847459346 453.1585866666667 L 741.3457355793 453.1858266666667 L 742.64299656514 453.21458 L 743.94025755098 453.2524133333333 L 745.23751853683 453.2524133333333 L 746.53477952267 453.2387933333333 L 747.83204050851 453.2282 L 749.12930149435 453.23425333333336 L 750.4265624802 453.24333333333334 L 751.72382346604 453.24182 L 753.02108445188 453.24636 L 754.31834543772 453.29176 L 755.61560642356 453.34775333333334 L 756.91286740941 453.40072 L 758.21012839525 453.41434 L 759.50738938109 453.39618 L 760.80465036693 453.37045333333333 L 762.10191135278 453.34624 L 763.39917233862 453.35078 L 764.69643332446 453.3568333333333 L 765.9936943103 453.36137333333335 L 767.29095529615 453.35532 L 768.58821628199 453.3522933333333 L 769.88547726783 453.3522933333333 L 771.18273825367 453.34624 L 772.47999923951 453.3265666666667 L 773.77726022536 453.30689333333333 L 775.0745212112 453.30084 L 776.37178219704 453.32354 L 777.66904318288 453.34624 L 778.96630416873 453.37348 L 780.26356515457 453.38256 L 781.56082614041 453.38256 L 782.85808712625 453.37499333333335 L 784.1553481121 453.36288666666667 L 785.45260909794 453.3568333333333 L 786.74987008378 453.3538066666667 L 788.04713106962 453.35986 L 789.34439205546 453.3659133333333 L 790.64165304131 453.3659133333333 L 791.93891402715 453.36137333333335 L 793.23617501299 453.3568333333333 L 794.53343599883 453.34926666666667 L 795.83069698468 453.3401866666667 L 797.12795797052 453.32202666666666 L 798.42521895636 453.31748666666664 L 799.7224799422 453.319 L 801.01974092805 453.3295933333333 L 802.31700191389 453.33867333333336 L 803.61426289973 453.3417 L 804.91152388557 453.3401866666667 L 806.20878487141 453.33564666666666 L 807.50604585726 453.33564666666666 L 808.8033068431 453.33716 L 810.10056782894 453.3432133333333 L 811.39782881478 453.34624 L 812.69508980063 453.34624 L 813.99235078647 453.3417 L 815.28961177231 453.33564666666666 L 816.58687275815 453.33413333333334 L 817.884133744 453.33110666666664 L 819.18139472984 453.33110666666664 L 820.47865571568 453.33110666666664 L 821.77591670152 453.33262 L 823.07317768736 453.32808 L 824.37043867321 453.32354 L 825.66769965905 453.3129466666667 L 826.96496064489 453.3023533333333 L 828.26222163073 453.28419333333335 L 829.55948261658 453.2766266666667 L 830.85674360242 453.2614933333333 L 832.15400458826 453.24484666666666 L 833.4512655741 453.20247333333333 L 834.74852655995 453.17372 L 836.04578754579 453.1449666666667 L 837.34304853163 453.13891333333333 L 838.64030951747 453.1374 L 839.93757050331 453.14648 L 841.23483148916 453.14950666666664 L 842.532092475 453.14194 L 843.82935346084 453.1313466666667 L 845.12661444668 453.1313466666667 L 846.42387543253 453.12983333333335 L 847.72113641837 453.12378 L 849.01839740421 453.0980533333333 L 850.31565839005 453.06022 L 851.6129193759 453.02692666666667 L 852.91018036174 452.9558 L 854.20744134758 452.88164666666665 L 855.50470233342 452.80295333333333 L 856.80196331926 452.79387333333335 L 858.09922430511 452.81506 L 859.39648529095 452.83776 L 860.69374627679 452.84684 L 861.99100726263 452.82716666666664 L 863.28826824848 452.7953866666667 L 864.58552923432 452.6955066666667 L 865.88279022016 452.61227333333335 L 867.180051206 452.5502266666667 L 868.47731219185 452.5245 L 869.77457317769 452.50634 L 871.07183416353 452.46548 L 872.36909514937 452.40192 L 873.66635613521 452.2445333333333 L 874.96361712106 452.27782666666667 L 876.2608781069 452.40646 L 877.55813909274 452.6274066666667 L 878.85540007858 452.66221333333334 L 880.15266106443 452.59714 L 881.44992205027 452.56233333333336 L 882.74718303611 452.5532533333333 L 884.04444402195 452.6153 L 885.34170500779 452.63648666666666 L 886.63896599364 452.61076 L 887.93622697948 452.57444 L 889.23348796532 452.54871333333335 L 890.53074895116 452.54266 L 891.82800993701 452.5169333333333 L 893.12527092285 452.48212666666666 L 894.42253190869 452.43975333333333 L 895.71979289453 452.40343333333334 L 897.01705388038 452.3867866666667 L 898.31431486622 452.38981333333334 L 899.61157585206 452.40192 L 900.9088368379 452.3958666666667 L 902.20609782374 452.3867866666667 L 903.50335880959 452.3656 L 904.80061979543 452.33987333333334 L 906.09788078127 452.32474 L 907.39514176711 452.35500666666667 L 908.69240275296 452.39284 L 909.9896637388 452.4215933333333 L 911.28692472464 452.43067333333335 L 912.58418571048 452.43824 L 913.88144669633 452.44580666666667 L 915.17870768217 452.45337333333333 L 916.47596866801 452.45791333333335 L 917.77322965385 452.46548 L 919.07049063969 452.5033133333333 L 920.36775162554 452.55174 L 921.66501261138 452.58503333333334 L 922.96227359722 452.57292666666666 L 924.25953458306 452.57898 L 925.55679556891 452.58352 L 926.85405655475 452.58654666666666 L 928.15131754059 452.57141333333334 L 929.44857852643 452.5638466666667 L 930.74583951228 452.5668733333333 L 932.04310049812 452.5472 L 933.34036148396 452.51542 L 934.6376224698 452.48364 L 935.93488345564 452.45791333333335 L 937.23214444149 452.43218666666667 L 938.52940542733 452.39738 L 939.82666641317 452.37922 L 941.12392739901 452.37014 L 942.42118838486 452.36711333333335 L 943.7184493707 452.35198 L 945.01571035654 452.30960666666664 L 946.31297134238 452.27026 L 947.61023232823 452.23848 L 948.90749331407 452.23696666666666 L 950.20475429991 452.22637333333336 L 951.50201528575 452.2188066666667 L 952.79927627159 452.2278866666667 L 954.09653725744 452.23999333333336 L 955.39379824328 452.2445333333333 L 956.69105922912 452.24302 L 957.98832021496 452.24907333333334 L 959.28558120081 452.2521 L 960.58284218665 452.2445333333333 L 961.88010317249 452.23848 L 963.17736415833 452.2445333333333 L 964.47462514418 452.24907333333334 L 965.77188613002 452.25058666666666 L 967.06914711586 452.23242666666664 L 968.3664081017 452.19762 L 969.66366908754 452.16281333333336 L 970.96093007339 452.1401133333333 L 972.25819105923 452.10833333333335 L 973.55545204507 452.04023333333333 L 974.85271303091 451.95246 L 976.14997401676 451.8419866666667 L 977.4472350026 451.7073 L 978.74449598844 451.64828 L 980.04175697428 451.5816933333333 L 981.33901796013 451.51510666666667 L 982.63627894597 451.36831333333333 L 983.93353993181 451.29264666666666 L 985.23080091765 451.27146 L 986.52806190349 451.2306 L 987.82532288934 451.10953333333333 L 989.12258387518 450.94004 L 990.41984486102 450.7599533333333 L 991.71710584686 450.61316 L 993.01436683271 450.56019333333336 L 994.31162781855 450.43156 L 995.60888880439 450.28779333333335 L 996.90614979023 450.13343333333336 L 998.20341077608 450.0729 L 999.50067176192 449.9821 L 1000.7979327478 449.7762866666667 L 1002.0951937336 449.5810666666667 L 1003.3924547194 449.09226 L 1004.6897157053 448.73662666666667 L 1005.9869766911 448.2599266666667 L 1007.284237677 448.14794 L 1008.5814986628 447.9618 L 1009.8787596487 447.92094 L 1011.1760206345 447.871 L 1012.4732816203 447.28534 L 1013.7705426062 446.1836333333333 L 1015.067803592 445.36189333333334 L 1016.3650645779 444.6990533333333 L 1017.6623255637 443.8954733333333 L 1018.9595865496 442.88002666666665 L 1020.2568475354 441.94781333333333 L 1021.5541085212 440.54041333333333 L 1022.8513695071 438.47168666666664 L 1024.1486304929 436.1456933333333 L 1025.4458914788 432.3729533333333 L 1026.7431524646 431.3877733333333 L 1028.0404134504 433.9089866666667 L 1029.3376744363 439.09669333333335 L 1030.6349354221 442.22778 L 1031.932196408 441.57553333333334 L 1033.2294573938 440.1303 L 1034.5267183797 438.33548666666667 L 1035.8239793655 436.4286866666667 L 1037.1212403513 436.11088666666666 L 1038.4185013372 435.72347333333335 L 1039.715762323 436.6087733333333 L 1041.0130233089 438.02374 L 1042.3102842947 439.0528066666667 L 1043.6075452806 439.82309333333336 L 1044.9048062664 439.27526666666665 L 1046.2020672522 439.2056533333333 L 1047.4993282381 439.11788 L 1048.7965892239 438.89088 L 1050.0938502098 438.7516533333333 L 1051.3911111956 438.4701733333333 L 1052.6883721815 438.22955333333334 L 1053.9856331673 438.0403866666667 L 1055.2828941531 437.62119333333334 L 1056.580155139 437.1566 L 1057.8774161248 436.94019333333335 L 1059.1746771107 437.06731333333335 L 1060.4719380965 437.43051333333335 L 1061.7691990823 437.8149 L 1063.0664600682 438.14329333333336 L 1064.363721054 438.82883333333336 L 1065.6609820399 439.6324133333333 L 1066.9582430257 440.2150466666667 L 1068.2555040116 440.41026666666664 L 1069.5527649974 440.44204666666667 L 1070.8500259832 440.62062000000003 L 1072.1472869691 440.38756666666666 L 1073.4445479549 439.9956133333333 L 1074.7418089408 439.95778 L 1076.0390699266 440.20748 L 1077.3363309125 440.6539133333333 L 1078.6335918983 441.0277066666667 L 1079.9308528841 441.62698666666665 L 1081.22811387 442.423 L 1082.5253748558 443.61550666666665 L 1083.8226358417 444.3071 L 1085.1198968275 444.47356666666667 L 1086.4171578134 443.4414733333333 L 1087.7144187992 442.5289333333333 L 1089.011679785 441.65422666666666 L 1090.3089407709 441.58007333333336 L 1091.6062017567 441.6981133333333 L 1092.9034627426 442.01591333333334 L 1094.2007237284 442.00078 L 1095.4979847142 441.8433933333333 L 1096.7952457001 441.55283333333335 L 1098.0925066859 441.25168 L 1099.3897676718 440.89302 L 1100.6870286576 440.56765333333334 L 1101.9842896435 440.39059333333336 L 1103.2815506293 440.31946666666664 L 1104.5788116151 440.42994 L 1105.876072601 440.52830666666665 L 1107.1733335868 440.53284666666667 L 1108.4705945727 440.65996666666666 L 1109.7678555585 440.86729333333335 L 1111.0651165444 441.10942666666665 L 1112.3623775302 440.76287333333335 L 1113.659638516 440.29676666666666 L 1114.9568995019 439.8503333333333 L 1116.2541604877 439.52648 L 1117.5514214736 439.0891266666667 L 1118.8486824594 438.3143 L 1120.1459434453 437.6106 L 1121.4432044311 437.21259333333336 L 1122.7404654169 437.44110666666666 L 1124.0377264028 437.94202 L 1125.3349873886 438.20534 L 1126.6322483745 438.08427333333333 L 1127.9295093603 437.7816066666667 L 1129.2267703461 437.64238 L 1130.524031332 437.59395333333333 L 1131.8212923178 437.69232 L 1133.1185533037 437.80430666666666 L 1134.4158142895 438.0040666666667 L 1135.7130752754 438.0040666666667 L 1137.0103362612 437.87846 L 1138.307597247 437.69988666666666 L 1139.6048582329 438.05552 L 1140.9021192187 438.3400266666667 L 1142.1993802046 438.57308 L 1143.4966411904 438.22955333333334 L 1144.7939021763 437.9359666666667 L 1146.0911631621 437.6938333333333 L 1147.3884241479 437.3049066666667 L 1148.6856851338 436.6874666666667 L 1149.9829461196 435.8324333333333 L 1151.2802071055 434.41898000000003 L 1152.5774680913 432.52126 L 1153.8747290772 430.32087333333334 L 1155.171990063 429.8502266666667 L 1156.4692510488 429.49459333333334 L 1157.7665120347 429.28424 L 1159.0637730205 428.15226666666666 L 1160.3610340064 427.59687333333335 L 1161.6582949922 426.16526 L 1162.955555978 423.0145 L 1164.2528169639 417.0837466666667 L 1165.5500779497 413.5259 L 1166.8473389356 409.30975333333333 L 1168.1445999214 405.86389333333335 L 1169.4418609073 400.23732 L 1170.7391218931 391.6415866666667 L 1172.0363828789 382.0167866666667 L 1173.3336438648 366.8304866666667 L 1174.6309048506 355.93448666666666 L 1175.9281658365 344.7797066666667 L 1177.2254268223 334.10314 L 1178.5226878082 324.5297933333334 L 1179.819948794 319.20286 L 1181.1172097798 317.3338933333333 L 1182.4144707657 327.46717333333333 L 1183.7117317515 337.3749666666667 L 1185.0089927374 345.0748066666667 L 1186.3062537232 342.9455466666667 L 1187.6035147091 340.37590666666665 L 1188.9007756949 349.2849 L 1190.1980366807 359.89185333333336 L 1191.4952976666 369.41223333333335 L 1192.7925586524 372.31178 L 1194.0898196383 370.66527333333335 L 1195.3870806241 366.82897333333335 L 1196.6843416099 363.8129 L 1197.9816025958 360.25202666666667 L 1199.2788635816 359.06254666666666 L 1200.5761245675 354.47563333333335 L 1201.8733855533 346.6895333333333 L 1203.1706465392 342.63077333333337 L 1204.467907525 342.45673999999997 L 1205.7651685108 344.34538 L 1207.0624294967 345.73159333333336 L 1208.3596904825 344.82359333333335 L 1209.6569514684 348.0303466666667 L 1210.9542124542 347.24946666666665 L 1212.2514734401 348.17865333333333 L 1213.5487344259 348.01521333333335 L 1214.8459954117 348.7052933333333 L 1216.1432563976 349.96741333333335 L 1217.4405173834 349.94925333333333 L 1218.7377783693 350.2579733333333 L 1220.0350393551 349.04428 L 1221.332300341 348.91262 L 1222.6295613268 351.02523333333335 L 1223.9268223126 355.70294666666666 L 1225.2240832985 361.6276466666667 L 1226.5213442843 366.3795133333333 L 1227.8186052702 368.3998133333333 L 1229.115866256 369.90255333333334 L 1230.4131272418 370.98912666666666 L 1231.7103882277 374.7664066666667 L 1233.0076492135 375.51702 L 1234.3049101994 379.35937333333334 L 1235.6021711852 378.89024 L 1236.8994321711 380.64722 L 1238.1966931569 377.33150666666666 L 1239.4939541427 373.61476000000005 L 1240.7912151286 370.8287133333333 L 1242.0884761144 370.38379333333336 L 1243.3857371003 372.49338 L 1244.6829980861 372.35415333333333 L 1245.980259072 371.79724666666664 L 1247.2775200578 371.47793333333334 L 1248.5747810436 372.5448333333334 L 1249.8720420295 374.7664066666667 L 1251.1693030153 377.69622000000004 L 1252.4665640012 379.4986 L 1253.763824987 380.88481333333334 L 1255.0610859729 383.5043933333333 L 1256.3583469587 388.8222466666667 L 1257.6556079445 392.7432933333333 L 1258.9528689304 395.13587333333334 L 1260.2501299162 395.01632 L 1261.5473909021 395.5081533333333 L 1262.8446518879 396.5493266666667 L 1264.1419128737 397.8159866666667 L 1265.4391738596 398.7603066666667 L 1266.7364348454 395.35833333333335 L 1268.0336958313 392.72059333333334 L 1269.3309568171 389.65155333333337 L 1270.628217803 389.90276666666665 L 1271.9254787888 389.81802 L 1273.2227397746 391.4842 L 1274.5200007605 393.70426 L 1275.8172617463 395.4824266666667 L 1277.1145227322 395.8168733333333 L 1278.411783718 396.17099333333334 L 1279.7090447039 397.00484 L 1281.0063056897 397.42252 L 1282.3035666755 396.6946066666667 L 1283.6008276614 396.29811333333333 L 1284.8980886472 396.3344333333333 L 1286.1953496331 396.4630666666667 L 1287.4926106189 396.0363066666667 L 1288.7898716048 395.06323333333336 L 1290.0871325906 392.46484 L 1291.3843935764 389.1627466666667 L 1292.6816545623 384.2429 L 1293.9789155481 381.27071333333333 L 1295.276176534 378.5013133333333 L 1296.5734375198 375.55182666666667 L 1297.8706985056 372.3269133333333 L 1299.1679594915 369.59534666666667 L 1300.4652204773 369.27906 L 1301.7624814632 369.3320266666667 L 1303.059742449 369.6241 L 1304.3570034349 372.02576 L 1305.6542644207 376.01490666666666 L 1306.9515254065 378.1169266666667 L 1308.2487863924 377.90203333333335 L 1309.5460473782 376.47647333333333 L 1310.8433083641 376.5869466666667 L 1312.1405693499 377.80518 L 1313.4378303358 378.3757066666667 L 1314.7350913216 378.2561533333334 L 1316.0323523074 375.62144 L 1317.3296132933 372.59326 L 1318.6268742791 370.9664266666667 L 1319.924135265 371.35535333333337 L 1321.2213962508 372.42528000000004 L 1322.5186572367 372.8187466666667 L 1323.8159182225 372.68103333333335 L 1325.1131792083 372.73551333333336 L 1326.4104401942 372.83539333333334 L 1327.70770118 372.8807933333334 L 1329.0049621659 372.94738 L 1330.3022231517 373.0003466666667 L 1331.5994841375 374.23220000000003 L 1332.8967451234 375.4110866666667 L 1334.1940061092 377.02430000000004 L 1335.4912670951 377.98072666666667 L 1336.7885280809 377.8702533333333 L 1338.0857890668 377.54034666666666 L 1339.3830500526 377.48889333333335 L 1340.6803110384 377.8566333333333 L 1341.9775720243 377.9898066666667 L 1343.2748330101 378.27734 L 1344.572093996 380.5412866666667 L 1345.8693549818 384.2262533333333 L 1347.1666159677 388.3001466666667 L 1348.4638769535 389.9648133333333 L 1349.7611379393 389.16728666666666 L 1351.0583989252 387.9884 L 1352.355659911 387.51775333333336 L 1353.6529208969 387.94451333333336 L 1354.9501818827 387.9187866666667 L 1356.2474428686 389.12945333333334 L 1357.5447038544 390.5958733333333 L 1358.8419648402 391.54624666666666 L 1360.1392258261 391.52052000000003 L 1361.4364868119 391.8095666666667 L 1362.7337477978 392.1954666666667 L 1364.0310087836 392.44214 L 1365.3282697694 392.2756733333333 L 1366.6255307553 393.09741333333335 L 1367.9227917411 395.76239333333336 L 1369.220052727 398.54995333333335 L 1370.5173137128 400.53847333333334 L 1371.8145746987 400.26002 L 1373.1118356845 400.60506 L 1374.4090966703 401.94587333333334 L 1375.7063576562 403.5046066666667 L 1377.003618642 404.93622 L 1378.3008796279 407.79642 L 1379.5981406137 410.08912 L 1380.8954015996 410.39935333333335 L 1382.1926625854 408.46985333333333 L 1383.4899235712 406.6447733333333 L 1384.7871845571 404.9014133333333 L 1386.0844455429 403.9949266666667 L 1387.3817065288 403.2957666666667 L 1388.6789675146 404.02973333333335 L 1389.9762285004 404.28246 L 1391.2734894863 405.82454666666666 L 1392.5707504721 407.1229866666667 L 1393.868011458 408.2171266666667 L 1395.1652724438 408.8527266666667 L 1396.4625334297 410.1087933333333 L 1397.7597944155 411.05916666666667 L 1399.0570554013 410.80038666666667 L 1400.3543163872 410.05885333333333 L 1401.651577373 408.37905333333333 L 1402.9488383589 406.10602666666665 L 1404.2460993447 403.6181066666667 L 1405.5433603306 403.08692666666667 L 1406.8406213164 403.8814266666667 L 1408.1378823022 405.32212 L 1409.4351432881 406.18926 L 1410.7324042739 406.4359333333333 L 1412.0296652598 406.08938 L 1413.3269262456 405.39627333333334 L 1414.6241872315 405.2631 L 1415.9214482173 405.02096666666665 L 1417.2187092031 404.99524 L 1418.515970189 405.1072266666667 L 1419.8132311748 405.5597133333333 L 1421.1104921607 406.61148000000003 L 1422.4077531465 407.4074933333333 L 1423.7050141323 408.25496 L 1425.0022751182 408.52130666666665 L 1426.299536104 410.14965333333333 L 1427.5967970899 411.4526333333333 L 1428.8940580757 412.08823333333333 L 1430.1913190616 411.46928 L 1431.4885800474 411.38150666666667 L 1432.7858410332 411.97624666666667 L 1434.0831020191 412.77528666666666 L 1435.3803630049 413.08400666666665 L 1436.6776239908 413.3745666666667 L 1437.9748849766 415.10128 L 1439.2721459625 416.82042666666666 L 1440.5694069483 418.2232866666667 L 1441.8666679341 418.1688066666667 L 1443.16392892 419.3083466666667 L 1444.4611899058 422.7451266666667 L 1445.7584508917 425.93977333333333 L 1447.0557118775 427.6120066666667 L 1448.3529728634 426.88560666666666 L 1449.6502338492 425.49182666666667 L 1450.947494835 424.01784 L 1452.2447558209 421.65401333333335 L 1453.5420168067 421.3195666666667 L 1454.8392777926 422.0096466666667 L 1456.1365387784 424.0375133333333 L 1457.4337997642 424.54296666666664 L 1458.7310607501 425.0181533333333 L 1460.0283217359 424.91070666666667 L 1461.3255827218 425.31174 L 1462.6228437076 425.18159333333335 L 1463.9201046935 424.39163333333335 L 1465.2173656793 423.54114 L 1466.5146266651 422.78296 L 1467.811887651 422.78598666666664 L 1469.1091486368 422.74664 L 1470.4064096227 422.78296 L 1471.7036706085 422.97818 L 1473.0009315944 422.4318666666667 L 1474.2981925802 421.69184666666666 L 1475.595453566 419.93335333333334 L 1476.8927145519 419.269 L 1478.1899755377 418.43969333333337 L 1479.4872365236 417.91910666666666 L 1480.7844975094 416.7750266666667 L 1482.0817584953 416.2559533333333 L 1483.3790194811 416.4088 L 1484.6762804669 417.226 L 1485.9735414528 418.3776466666667 L 1487.2708024386 419.59134 L 1488.5680634245 420.43426666666664 L 1489.8653244103 420.9261 L 1491.1625853961 421.3195666666667 L 1492.459846382 421.85226 L 1493.7571073678 422.1125533333333 L 1495.0543683537 421.9687866666667 L 1496.3516293395 421.5011666666667 L 1497.6488903254 420.9715 L 1498.9461513112 421.31654000000003 L 1500.243412297 422.14584666666667 L 1501.5406732829 423.1718866666667 L 1502.8379342687 424.37952666666666 L 1504.1351952546 424.81536666666665 L 1505.4324562404 425.1331666666667 L 1506.7297172263 424.81839333333335 L 1508.0269782121 424.3749866666667 L 1509.3242391979 424.1268 L 1510.6215001838 424.3099133333333 L 1511.9187611696 424.83958 L 1513.2160221555 424.64436 L 1514.5132831413 423.9164466666667 L 1515.8105441272 423.4306666666667 L 1517.107805113 423.40494 L 1518.4050660988 423.16280666666665 L 1519.7023270847 422.88889333333333 L 1520.9995880705 422.5756333333333 L 1522.2968490564 422.78901333333334 L 1523.5941100422 423.0296333333333 L 1524.891371028 423.37013333333334 L 1526.1886320139 423.48514666666665 L 1527.4858929997 423.33684 L 1528.7831539856 423.1718866666667 L 1530.0804149714 423.16432 L 1531.3776759573 423.31414 L 1532.6749369431 423.5971333333333 L 1533.9721979289 424.10864 L 1535.2694589148 424.5520466666667 L 1536.5667199006 424.8653066666667 L 1537.8639808865 424.79115333333334 L 1539.1612418723 424.6564666666667 L 1540.4585028582 424.43249333333335 L 1541.755763844 424.1797666666667 L 1543.0530248298 423.66826 L 1544.3502858157 422.81928 L 1545.6475468015 422.20940666666667 L 1546.9448077874 422.05656 L 1548.2420687732 422.35166 L 1549.5393297591 422.5120733333333 L 1550.8365907449 422.3304733333333 L 1552.1338517307 421.64342 L 1553.4311127166 420.99874 L 1554.7283737024 420.65824 L 1556.0256346883 420.05442 L 1557.3228956741 419.53383333333335 L 1558.6201566599 418.56984 L 1559.9174176458 417.3046933333333 L 1561.2146786316 416.31346 L 1562.5119396175 416.11824 L 1563.8092006033 417.12763333333334 L 1565.1064615892 417.7420466666667 L 1566.403722575 417.9629933333333 L 1567.7009835608 417.7935 L 1568.9982445467 417.25021333333336 L 1570.2955055325 416.61158666666665 L 1571.5927665184 416.30286666666666 L 1572.8900275042 416.60402 L 1574.1872884901 417.0565066666667 L 1575.4845494759 417.28502000000003 L 1576.7818104617 417.48024 L 1578.0790714476 418.12340666666665 L 1579.3763324334 418.94060666666667 L 1580.6735934193 419.42941333333334 L 1581.9708544051 419.49297333333334 L 1583.268115391 419.81682666666666 L 1584.5653763768 420.82622 L 1585.8626373626 422.24421333333333 L 1587.1598983485 423.54568 L 1588.4571593343 424.6685733333333 L 1589.7544203202 424.8774133333333 L 1591.051681306 424.71246 L 1592.3489422918 424.23273333333333 L 1593.6462032777 424.1918733333333 L 1594.9434642635 424.2826733333333 L 1596.2407252494 423.90434 L 1597.5379862352 423.35651333333334 L 1598.8352472211 422.89040666666665 L 1600.1325082069 422.8858666666667 L 1601.4297691927 423.39737333333335 L 1602.7270301786 423.87104666666664 L 1604.0242911644 424.04508 L 1605.3215521503 424.04205333333334 L 1606.6188131361 424.08291333333335 L 1607.916074122 424.1495 L 1609.2133351078 423.96336 L 1610.5105960936 423.6213466666667 L 1611.8078570795 423.36862 L 1613.1051180653 423.21274666666665 L 1614.4023790512 423.06444 L 1615.699640037 422.84198000000004 L 1616.9969010229 422.5726066666667 L 1618.2941620087 422.31534 L 1619.5914229945 422.12466 L 1620.8886839804 421.79929333333337 L 1622.1859449662 421.22725333333335 L 1623.4832059521 420.4327533333333 L 1624.7804669379 419.78807333333333 L 1626.0777279237 419.2266266666667 L 1627.3749889096 418.66820666666666 L 1628.6722498954 417.67394666666667 L 1629.9695108813 416.57829333333336 L 1631.2667718671 414.80164 L 1632.564032853 413.8830466666667 L 1633.8612938388 410.50982666666664 L 1635.1585548246 406.24071333333336 L 1636.4558158105 402.925 L 1637.7530767963 402.69648666666666 L 1639.0503377822 406.44804 L 1640.347598768 408.86937333333333 L 1641.6448597539 411.16207333333335 L 1642.9421207397 411.12424 L 1644.2393817255 411.1302933333333 L 1645.5366427114 411.30432666666667 L 1646.8339036972 411.70384666666666 L 1648.1311646831 412.07915333333335 L 1649.4284256689 410.75196 L 1650.7256866548 409.21744 L 1652.0229476406 407.36360666666667 L 1653.3202086264 407.0185666666667 L 1654.6174696123 406.57062 L 1655.9147305981 405.40838 L 1657.211991584 403.55908666666664 L 1658.5092525698 400.9349666666667 L 1659.8065135556 399.22338666666667 L 1661.1037745415 397.14558 L 1662.4010355273 396.11046 L 1663.6982965132 394.9149266666667 L 1664.995557499 395.59441333333336 L 1666.2928184849 396.25271333333336 L 1667.5900794707 396.49484666666666 L 1668.8873404565 397.29842666666667 L 1670.1846014424 397.78118 L 1671.4818624282 398.89650666666665 L 1672.7791234141 398.25182666666666 L 1674.0763843999 398.12168 L 1675.3736453858 398.00666666666666 L 1676.6709063716 397.26059333333336 L 1677.9681673574 396.49787333333336 L 1679.2654283433 395.82595333333336 L 1680.5626893291 396.67493333333334 L 1681.859950315 399.58053333333334 L 1683.1572113008 402.23946 L 1684.4544722867 403.8496466666667 L 1685.7517332725 403.16562 L 1687.0489942583 402.6783266666667 L 1688.3462552442 402.80393333333336 L 1689.64351623 403.16713333333337 L 1690.9407772159 403.98282 L 1692.2380382017 404.68198 L 1693.5352991875 405.44016 L 1694.8325601734 405.0920933333333 L 1696.1298211592 405.13749333333334 L 1697.4270821451 404.99524 L 1698.7243431309 405.33725333333336 L 1700.0216041168 404.8348266666667 L 1701.3188651026 403.61054 L 1702.6161260884 402.11839333333336 L 1703.9133870743 400.6716466666667 L 1705.2106480601 399.1779866666667 L 1706.507909046 398.51212 L 1707.8051700318 398.3501933333333 L 1709.1024310177 398.73458 L 1710.3996920035 398.4288866666667 L 1711.6969529893 398.05358 L 1712.9942139752 398.4515866666667 L 1714.291474961 399.7439733333333 L 1715.5887359469 400.55663333333337 L 1716.8859969327 400.74731333333335 L 1718.1832579186 400.28423333333336 L 1719.4805189044 400.24186 L 1720.7777798902 400.20554 L 1722.0750408761 400.2857466666667 L 1723.3723018619 400.50064 L 1724.6695628478 400.6080866666667 L 1725.9668238336 400.46129333333334 L 1727.2640848194 400.1207933333333 L 1728.5613458053 399.6032333333333 L 1729.8586067911 399.77424 L 1731.155867777 399.75154 L 1732.4531287628 400.04664 L 1733.7503897487 399.73489333333333 L 1735.0476507345 399.55632 L 1736.3449117203 399.4746 L 1737.6421727062 399.44130666666666 L 1738.939433692 399.24457333333334 L 1740.2366946779 398.96612 L 1741.5339556637 398.68918 L 1742.8312166496 398.4137533333333 L 1744.1284776354 397.53904666666665 L 1745.4257386212 396.60078 L 1746.7229996071 395.30234 L 1748.0202605929 394.82715333333334 L 1749.3175215788 394.6622 L 1750.6147825646 395.18581333333333 L 1751.9120435505 395.62770666666665 L 1753.2093045363 395.85016666666667 L 1754.5065655221 395.39768 L 1755.803826508 394.8665 L 1757.1010874938 394.72273333333334 L 1758.3983484797 394.90584666666666 L 1759.6956094655 395.0511266666667 L 1760.9928704513 394.9376266666667 L 1762.2901314372 395.2993133333333 L 1763.587392423 395.8955666666667 L 1764.8846534089 396.49182 L 1766.1819143947 396.52511333333337 L 1767.4791753806 395.71094 L 1768.7764363664 392.37252666666666 L 1770.0736973522 388.84797333333336 L 1771.3709583381 385.46113333333335 L 1772.6682193239 383.14422 L 1773.9654803098 380.93475333333333 L 1775.2627412956 379.2746266666667 L 1776.5600022815 379.03552 L 1777.8572632673 376.85632 L 1779.1545242531 371.8608066666667 L 1780.451785239 365.3338 L 1781.7490462248 360.16728 L 1783.0463072107 357.94722 L 1784.3435681965 362.2995666666667 L 1785.6408291824 366.90766666666667 L 1786.9380901682 371.18132 L 1788.235351154 370.32326 L 1789.5326121399 369.79964666666666 L 1790.8298731257 367.97154 L 1792.1271341116 367.06959333333333 L 1793.4243950974 366.40221333333335 L 1794.7216560832 368.15314 L 1796.0189170691 368.90526666666665 L 1797.3161780549 369.3274866666667 L 1798.6134390408 368.8871066666667 L 1799.9107000266 368.3075 L 1801.2079610125 367.70519333333334 L 1802.5052219983 367.2239533333333 L 1803.8024829841 367.44641333333334 L 1805.09974397 368.1259 L 1806.3970049558 368.7463666666667 L 1807.6942659417 368.87954 L 1808.9915269275 369.00060666666667 L 1810.2887879134 370.63198 L 1811.5860488992 375.60782 L 1812.883309885 379.0188733333333 L 1814.1805708709 380.13874 L 1815.4778318567 377.9474333333333 L 1816.7750928426 377.3526933333333 L 1818.0723538284 377.53278 L 1819.3696148143 378.40446000000003 L 1820.6668758001 378.94018 L 1821.9641367859 379.4047733333333 L 1823.2613977718 378.86754 L 1824.5586587576 378.46650666666665 L 1825.8559197435 378.2501 L 1827.1531807293 378.5391466666667 L 1828.4504417151 379.0461133333333 L 1829.747702701 379.24587333333335 L 1831.0449636868 379.32305333333335 L 1832.3422246727 378.03218000000004 L 1833.6394856585 376.61116000000004 L 1834.9367466444 374.5954 L 1836.2340076302 373.7449066666667 L 1837.531268616 373.7751733333333 L 1838.8285296019 374.1898266666667 L 1840.1257905877 374.8678 L 1841.4230515736 374.8299666666667 L 1842.7203125594 374.8965533333333 L 1844.0175735453 375.3974666666667 L 1845.3148345311 375.64565333333337 L 1846.6120955169 375.8635733333333 L 1847.9093565028 375.53064 L 1849.2066174886 375.36568666666665 L 1850.5038784745 375.03124 L 1851.8011394603 374.8193733333333 L 1853.0984004462 374.63172 L 1854.395661432 374.4168266666667 L 1855.6929224178 374.1641 L 1856.9901834037 373.08509333333336 L 1858.2874443895 372.21492666666666 L 1859.5847053754 371.2161266666667 L 1860.8819663612 371.2131 L 1862.179227347 371.55965333333336 L 1863.4764883329 371.38562 L 1864.7737493187 370.7394266666667 L 1866.0710103046 369.26846666666665 L 1867.3682712904 367.48424666666665 L 1868.6655322763 365.13858 L 1869.9627932621 362.9200333333333 L 1871.2600542479 361.84708 L 1872.5573152338 361.94242 L 1873.8545762196 362.25416666666666 L 1875.1518372055 362.02868 L 1876.4490981913 361.58224666666666 L 1877.7463591772 361.80319333333335 L 1879.043620163 362.07408 L 1880.3408811488 361.10706 L 1881.6381421347 359.11854 L 1882.9354031205 358.03348 L 1884.2326641064 357.67633333333333 L 1885.5299250922 358.1152 L 1886.8271860781 358.2438333333333 L 1888.1244470639 358.77652666666665 L 1889.4217080497 358.39365333333336 L 1890.7189690356 356.7698466666667 L 1892.0162300214 355.60912 L 1893.3134910073 355.0083266666667 L 1894.6107519931 354.94325333333336 L 1895.9080129789 354.46201333333335 L 1897.2052739648 353.75377333333336 L 1898.5025349506 353.4965066666667 L 1899.7997959365 352.8790666666667 L 1901.0970569223 352.39480000000003 L 1902.3943179082 350.97529333333335 L 1903.691578894 346.8317866666667 L 1904.9888398798 342.49457333333334 L 1906.2861008657 337.94700666666665 L 1907.5833618515 334.29382 L 1908.8806228374 331.40789333333333 L 1910.1778838232 327.3869666666667 L 1911.4751448091 322.65174666666667 L 1912.7724057949 323.3917666666667 L 1914.0696667807 327.9045266666667 L 1915.3669277666 335.4636266666667 L 1916.6641887524 341.7152066666667 L 1917.9614497383 345.1913333333333 L 1919.2587107241 348.3799266666667 L 1920.55597171 344.2682 L 1921.8532326958 341.12803333333335 L 1923.1504936816 337.09954 L 1924.4477546675 336.37465333333336 L 1925.7450156533 335.95092 L 1927.0422766392 335.9388133333333 L 1928.339537625 335.40460666666667 L 1929.6367986108 332.47782 L 1930.9340595967 328.5628266666667 L 1932.2313205825 324.05158 L 1933.5285815684 321.24737333333337 L 1934.8258425542 321.07788 L 1936.1231035401 321.8965933333334 L 1937.4203645259 323.48862 L 1938.7176255117 323.58244666666667 L 1940.0148864976 321.79368666666664 L 1941.3121474834 319.4374266666667 L 1942.6094084693 315.4513066666667 L 1943.9066694551 311.0293466666667 L 1945.203930441 306.3592 L 1946.5011914268 302.95874000000003 L 1947.7984524126 300.47687333333334 L 1949.0957133985 295.74014 L 1950.3929743843 292.01885333333337 L 1951.6902353702 289.77912000000003 L 1952.987496356 293.9877 L 1954.2847573419 299.61276 L 1955.5820183277 300.6145866666667 L 1956.8792793135 297.3094666666667 L 1958.1765402994 297.4320466666667 L 1959.4738012852 307.92247333333336 L 1960.7710622711 315.1668 L 1962.0683232569 319.58876 L 1963.3655842427 321.3351466666667 L 1964.6628452286 325.09123999999997 L 1965.9601062144 324.6765866666667 L 1967.2573672003 320.0019 L 1968.5546281861 315.8493133333334 L 1969.851889172 311.5968466666667 L 1971.1491501578 307.01447333333334 L 1972.4464111436 303.00414 L 1973.7436721295 300.12578 L 1975.0409331153 297.61516 L 1976.3381941012 297.75136 L 1977.635455087 298.71838 L 1978.9327160729 299.2314 L 1980.2299770587 297.19294 L 1981.5272380445 293.9952666666667 L 1982.8244990304 291.8539 L 1984.1217600162 289.06785333333335 L 1985.4190210021 285.6734466666667 L 1986.7162819879 282.06112 L 1988.0135429738 275.99265333333335 L 1989.3108039596 268.65904 L 1990.6080649454 259.8862466666667 L 1991.9053259313 253.2442266666667 L 1993.2025869171 243.1200266666667 L 1994.499847903 233.44074666666668 L 1995.7971088888 225.40343333333337 L 1997.0943698746 225.88013333333333 L 1998.3916308605 222.31018000000003 L 1999.6888918463 212.23138000000003 L 2000.9861528322 197.63830666666667 L 2002.283413818 176.87688666666668 L 2003.5806748039 164.23450000000003 L 2004.8779357897 162.72419333333335 L 2006.1751967755 166.00510000000003 L 2007.4724577614 164.14672666666672 L 2008.7697187472 147.61053333333336 L 2010.0669797331 132.49081999999999 L 2011.3642407189 113.83293333333336 L 2012.6615017048 99.81190000000004 L 2013.9587626906 86.99699333333336 L 2015.2560236764 90.07511333333338 L 2016.5532846623 105.87885333333332 L 2017.8505456481 120.49916666666672 L 2019.147806634 126.57974000000002 L 2020.4450676198 114.98155333333335 L 2021.7423286057 108.34861333333339 L 2023.0395895915 108.84650000000005 L 2024.3368505773 119.04485333333332 L 2025.6341115632 125.7020066666667 L 2026.931372549 129.8046533333333" stroke="#039bd3" stroke-width="2" stroke-linejoin="round" stroke-linecap="round"></path></g><g class="highcharts-markers highcharts-series-0" transform="translate(88,63) scale(1 1)" clip-path="none"></g></g><text x="1080" text-anchor="middle" class="highcharts-title" style="color:#333333;font-size:18px;fill:#333333;width:2096px;" y="24"><tspan>Market Price (USD)</tspan></text><text x="1080" text-anchor="middle" class="highcharts-subtitle" style="color:#555555;fill:#555555;width:2096px;" y="47"><tspan>source: blockchain.info</tspan></text><g class="highcharts-legend"><g><g></g></g></g><g class="highcharts-axis-labels highcharts-xaxis-labels"><text x="102.36608436738194" style="color:#606060;cursor:default;font-size:11px;fill:#606060;width:115px;text-overflow:clip;" text-anchor="middle" transform="translate(0,0)" y="536" opacity="1"><tspan>Jan '09</tspan></text><text x="219.74117731557178" style="color:#606060;cursor:default;font-size:11px;fill:#606060;width:115px;text-overflow:clip;" text-anchor="middle" transform="translate(0,0)" y="536" opacity="1"><tspan>Jul '09</tspan></text><text x="339.11621428360183" style="color:#606060;cursor:default;font-size:11px;fill:#606060;width:115px;text-overflow:clip;" text-anchor="middle" transform="translate(0,0)" y="536" opacity="1"><tspan>Jan '10</tspan></text><text x="456.49130723179167" style="color:#606060;cursor:default;font-size:11px;fill:#606060;width:115px;text-overflow:clip;" text-anchor="middle" transform="translate(0,0)" y="536" opacity="1"><tspan>Jul '10</tspan></text><text x="575.8663441998217" style="color:#606060;cursor:default;font-size:11px;fill:#606060;width:115px;text-overflow:clip;" text-anchor="middle" transform="translate(0,0)" y="536" opacity="1"><tspan>Jan '11</tspan></text><text x="693.2414371480115" style="color:#606060;cursor:default;font-size:11px;fill:#606060;width:115px;text-overflow:clip;" text-anchor="middle" transform="translate(0,0)" y="536" opacity="1"><tspan>Jul '11</tspan></text><text x="812.6164741160416" style="color:#606060;cursor:default;font-size:11px;fill:#606060;width:115px;text-overflow:clip;" text-anchor="middle" transform="translate(0,0)" y="536" opacity="1"><tspan>Jan '12</tspan></text><text x="930.6401975571525" style="color:#606060;cursor:default;font-size:11px;fill:#606060;width:115px;text-overflow:clip;" text-anchor="middle" transform="translate(0,0)" y="536" opacity="1"><tspan>Jul '12</tspan></text><text x="1050.0152345251827" style="color:#606060;cursor:default;font-size:11px;fill:#606060;width:115px;text-overflow:clip;" text-anchor="middle" transform="translate(0,0)" y="536" opacity="1"><tspan>Jan '13</tspan></text><text x="1167.3903274733725" style="color:#606060;cursor:default;font-size:11px;fill:#606060;width:115px;text-overflow:clip;" text-anchor="middle" transform="translate(0,0)" y="536" opacity="1"><tspan>Jul '13</tspan></text><text x="1286.7653644414024" style="color:#606060;cursor:default;font-size:11px;fill:#606060;width:115px;text-overflow:clip;" text-anchor="middle" transform="translate(0,0)" y="536" opacity="1"><tspan>Jan '14</tspan></text><text x="1404.1404573895923" style="color:#606060;cursor:default;font-size:11px;fill:#606060;width:115px;text-overflow:clip;" text-anchor="middle" transform="translate(0,0)" y="536" opacity="1"><tspan>Jul '14</tspan></text><text x="1523.5154943576224" style="color:#606060;cursor:default;font-size:11px;fill:#606060;width:115px;text-overflow:clip;" text-anchor="middle" transform="translate(0,0)" y="536" opacity="1"><tspan>Jan '15</tspan></text><text x="1640.8905873058122" style="color:#606060;cursor:default;font-size:11px;fill:#606060;width:115px;text-overflow:clip;" text-anchor="middle" transform="translate(0,0)" y="536" opacity="1"><tspan>Jul '15</tspan></text><text x="1760.2656242738421" style="color:#606060;cursor:default;font-size:11px;fill:#606060;width:115px;text-overflow:clip;" text-anchor="middle" transform="translate(0,0)" y="536" opacity="1"><tspan>Jan '16</tspan></text><text x="1878.2893477149532" style="color:#606060;cursor:default;font-size:11px;fill:#606060;width:115px;text-overflow:clip;" text-anchor="middle" transform="translate(0,0)" y="536" opacity="1"><tspan>Jul '16</tspan></text><text x="1997.6643846829834" style="color:#606060;cursor:default;font-size:11px;fill:#606060;width:115px;text-overflow:clip;" text-anchor="middle" transform="translate(0,0)" y="536" opacity="1"><tspan>Jan '17</tspan></text><text x="2115.039477631173" style="color:#606060;cursor:default;font-size:11px;fill:#606060;width:115px;text-overflow:clip;" text-anchor="middle" transform="translate(0,0)" y="536" opacity="1"><tspan>Jul '17</tspan></text></g><g class="highcharts-axis-labels highcharts-yaxis-labels"><text x="0" style="color:#606060;cursor:default;font-size:11px;fill:#606060;width:703px;text-overflow:clip;" text-anchor="end" transform="translate(0,0)" y="-9999">0.0000</text><text x="73" style="color:#606060;cursor:default;font-size:11px;fill:#606060;width:703px;text-overflow:clip;" text-anchor="end" transform="translate(0,0)" y="446" opacity="1">500</text><text x="73" style="color:#606060;cursor:default;font-size:11px;fill:#606060;width:703px;text-overflow:clip;" text-anchor="end" transform="translate(0,0)" y="370" opacity="1">1,000</text><text x="73" style="color:#606060;cursor:default;font-size:11px;fill:#606060;width:703px;text-overflow:clip;" text-anchor="end" transform="translate(0,0)" y="294" opacity="1">1,500</text><text x="73" style="color:#606060;cursor:default;font-size:11px;fill:#606060;width:703px;text-overflow:clip;" text-anchor="end" transform="translate(0,0)" y="219" opacity="1">2,000</text><text x="73" style="color:#606060;cursor:default;font-size:11px;fill:#606060;width:703px;text-overflow:clip;" text-anchor="end" transform="translate(0,0)" y="143" opacity="1">2,500</text><text x="73" style="color:#606060;cursor:default;font-size:11px;fill:#606060;width:703px;text-overflow:clip;" text-anchor="end" transform="translate(0,0)" y="67" opacity="1">3,000</text></g><g class="highcharts-tooltip" style="cursor:default;padding:0;pointer-events:none;white-space:nowrap;" transform="translate(0,-9999)"><path fill="none" d="M 3.5 0.5 L 13.5 0.5 C 16.5 0.5 16.5 0.5 16.5 3.5 L 16.5 13.5 C 16.5 16.5 16.5 16.5 13.5 16.5 L 3.5 16.5 C 0.5 16.5 0.5 16.5 0.5 13.5 L 0.5 3.5 C 0.5 0.5 0.5 0.5 3.5 0.5"  stroke="black" stroke-opacity="0.049999999999999996" stroke-width="5" transform="translate(1, 1)"></path><path fill="none" d="M 3.5 0.5 L 13.5 0.5 C 16.5 0.5 16.5 0.5 16.5 3.5 L 16.5 13.5 C 16.5 16.5 16.5 16.5 13.5 16.5 L 3.5 16.5 C 0.5 16.5 0.5 16.5 0.5 13.5 L 0.5 3.5 C 0.5 0.5 0.5 0.5 3.5 0.5"  stroke="black" stroke-opacity="0.09999999999999999" stroke-width="3" transform="translate(1, 1)"></path><path fill="none" d="M 3.5 0.5 L 13.5 0.5 C 16.5 0.5 16.5 0.5 16.5 3.5 L 16.5 13.5 C 16.5 16.5 16.5 16.5 13.5 16.5 L 3.5 16.5 C 0.5 16.5 0.5 16.5 0.5 13.5 L 0.5 3.5 C 0.5 0.5 0.5 0.5 3.5 0.5"  stroke="black" stroke-opacity="0.15" stroke-width="1" transform="translate(1, 1)"></path><path fill="rgb(249, 249, 249)" fill-opacity=" .85" d="M 3.5 0.5 L 13.5 0.5 C 16.5 0.5 16.5 0.5 16.5 3.5 L 16.5 13.5 C 16.5 16.5 16.5 16.5 13.5 16.5 L 3.5 16.5 C 0.5 16.5 0.5 16.5 0.5 13.5 L 0.5 3.5 C 0.5 0.5 0.5 0.5 3.5 0.5"></path><text x="8" style="font-size:12px;color:#333333;fill:#333333;" y="20"></text></g></svg>
