<?xml version="1.0" encoding="utf-8"?>
<!-- Generator: Adobe Illustrator 21.1.0, SVG Export Plug-In . SVG Version: 6.00 Build 0)  -->
<svg version="1.1" id="Layer_1" xmlns="http://www.w3.org/2000/svg" xmlns:xlink="http://www.w3.org/1999/xlink" x="0px" y="0px"
	 viewBox="0 0 2160 557" style="enable-background:new 0 0 2160 557;" xml:space="preserve">
<style type="text/css">
	.st0{fill:#FFFFFF;}
	.st1{fill:none;stroke:#D8D8D8;}
	.st2{fill:none;stroke:#C0D0E0;}
	.st3{fill:#707070;}
	.st4{font-family:'LucidaGrande';}
	.st5{font-size:12px;}
	.st6{clip-path:url(#SVGID_2_);}
	.st7{fill:none;stroke:#039BD3;stroke-width:2;stroke-linecap:round;stroke-linejoin:round;}
	.st8{fill:#333333;}
	.st9{font-size:18px;}
	.st10{fill:#555555;}
	.st11{fill:#606060;}
	.st12{font-size:11px;}
	.st13{enable-background:new    ;}
	.st14{fill:none;stroke:#000000;stroke-width:5;stroke-opacity:5.000000e-02;}
	.st15{fill:none;stroke:#000000;stroke-width:3;stroke-opacity:0.1;}
	.st16{fill:none;stroke:#000000;stroke-opacity:0.15;}
	.st17{fill:#F9F9F9;fill-opacity:0.85;}
</style>
<desc>Created with Highcharts 4.2.5</desc>
<rect class="st0" width="2160" height="557"/>
<g>
	<path class="st1" d="M88,517.5h2047"/>
	<path class="st1" d="M88,441.5h2047"/>
	<path class="st1" d="M88,366.5h2047"/>
	<path class="st1" d="M88,290.5h2047"/>
	<path class="st1" d="M88,214.5h2047"/>
	<path class="st1" d="M88,139.5h2047"/>
	<path class="st1" d="M88,63.5h2047"/>
</g>
<g>
	<path class="st2" d="M101.5,517v10"/>
	<path class="st2" d="M219.5,517v10"/>
	<path class="st2" d="M338.5,517v10"/>
	<path class="st2" d="M455.5,517v10"/>
	<path class="st2" d="M575.5,517v10"/>
	<path class="st2" d="M692.5,517v10"/>
	<path class="st2" d="M812.5,517v10"/>
	<path class="st2" d="M930.5,517v10"/>
	<path class="st2" d="M1049.5,517v10"/>
	<path class="st2" d="M1166.5,517v10"/>
	<path class="st2" d="M1286.5,517v10"/>
	<path class="st2" d="M1403.5,517v10"/>
	<path class="st2" d="M1523.5,517v10"/>
	<path class="st2" d="M1640.5,517v10"/>
	<path class="st2" d="M1759.5,517v10"/>
	<path class="st2" d="M1877.5,517v10"/>
	<path class="st2" d="M1997.5,517v10"/>
	<path class="st2" d="M2114.5,517v10"/>
	<path class="st2" d="M88,517.5h2047"/>
</g>
<g>
	<text transform="matrix(-1.836970e-16 -1 1 -1.836970e-16 24.7656 301.8828)" class="st3 st4 st5">USD</text>
</g>
<g>
	<g>
		<defs>
			<rect id="SVGID_1_" x="88" y="63" width="2047" height="454"/>
		</defs>
		<clipPath id="SVGID_2_">
			<use xlink:href="#SVGID_1_"  style="overflow:visible;"/>
		</clipPath>
		<g transform="translate(88,63) scale(1 1)" class="st6">
			<path class="st7" d="M20.1,454h1.3h1.3H24h1.3h1.3h1.3h1.3h1.3h1.3H33h1.3h1.3h1.3h1.3h1.3h1.3h1.3h1.3h1.3H46h1.3h1.3h1.3h1.3
				h1.3h1.3h1.3h1.3h1.3H59h1.3h1.3h1.3h1.3h1.3h1.3h1.3h1.3h1.3H72h1.3h1.3h1.3h1.3h1.3h1.3H81h1.3h1.3h1.3h1.3h1.3h1.3h1.3h1.3
				h1.3H94h1.3h1.3h1.3h1.3h1.3h1.3h1.3h1.3h1.3h1.3h1.3h1.3h1.3h1.3h1.3h1.3h1.3h1.3h1.3h1.3h1.3h1.3h1.3h1.3h1.3h1.3h1.3h1.3h1.3
				h1.3h1.3h1.3h1.3h1.3h1.3h1.3h1.3h1.3h1.3h1.3h1.3h1.3h1.3h1.3h1.3h1.3h1.3h1.3h1.3h1.3h1.3h1.3h1.3h1.3h1.3h1.3h1.3h1.3h1.3h1.3
				h1.3h1.3h1.3h1.3h1.3h1.3h1.3h1.3h1.3h1.3h1.3h1.3h1.3h1.3h1.3h1.3h1.3h1.3h1.3h1.3h1.3h1.3h1.3h1.3h1.3h1.3h1.3h1.3h1.3h1.3h1.3
				h1.3h1.3h1.3h1.3h1.3h1.3h1.3h1.3h1.3h1.3h1.3h1.3h1.3h1.3h1.3h1.3h1.3h1.3h1.3h1.3h1.3h1.3h1.3h1.3h1.3h1.3h1.3h1.3h1.3h1.3h1.3
				h1.3h1.3h1.3h1.3h1.3h1.3h1.3h1.3h1.3h1.3h1.3h1.3h1.3h1.3h1.3h1.3h1.3h1.3h1.3h1.3h1.3h1.3h1.3h1.3h1.3h1.3h1.3h1.3h1.3h1.3h1.3
				h1.3h1.3h1.3h1.3h1.3h1.3h1.3h1.3h1.3h1.3h1.3h1.3h1.3h1.3h1.3h1.3h1.3h1.3h1.3h1.3h1.3h1.3h1.3h1.3h1.3h1.3h1.3h1.3h1.3h1.3h1.3
				h1.3h1.3h1.3h1.3h1.3h1.3h1.3h1.3h1.3h1.3h1.3h1.3h1.3h1.3h1.3h1.3h1.3h1.3h1.3h1.3h1.3h1.3h1.3h1.3h1.3h1.3h1.3h1.3h1.3h1.3h1.3
				h1.3h1.3h1.3h1.3h1.3h1.3h1.3h1.3h1.3h1.3h1.3h1.3h1.3h1.3h1.3h1.3h1.3h1.3h1.3l1.3,0l1.3,0l1.3,0h1.3h1.3h1.3h1.3h1.3h1.3h1.3
				h1.3h1.3h1.3h1.3h1.3l1.3,0l1.3,0h1.3l1.3,0h1.3h1.3h1.3h1.3h1.3h1.3h1.3h1.3l1.3,0l1.3,0l1.3,0h1.3h1.3h1.3l1.3,0l1.3,0l1.3,0
				l1.3,0l1.3,0l1.3,0l1.3,0l1.3,0l1.3,0l1.3,0h1.3l1.3,0l1.3,0l1.3,0h1.3h1.3h1.3h1.3h1.3h1.3l1.3,0l1.3,0l1.3,0l1.3,0h1.3l1.3,0
				h1.3h1.3l1.3,0l1.3,0l1.3,0h1.3h1.3h1.3l1.3,0l1.3,0l1.3,0h1.3h1.3l1.3,0l1.3,0l1.3,0l1.3,0l1.3,0l1.3,0l1.3,0l1.3,0l1.3,0l1.3,0
				h1.3h1.3l1.3,0l1.3,0l1.3,0l1.3,0l1.3,0l1.3,0l1.3,0l1.3,0l1.3,0l1.3,0l1.3,0l1.3,0l1.3,0l1.3,0l1.3,0l1.3,0l1.3,0l1.3,0l1.3,0
				l1.3,0h1.3h1.3h1.3l1.3,0l1.3,0l1.3,0l1.3,0l1.3,0h1.3l1.3,0l1.3,0l1.3,0l1.3,0l1.3,0h1.3l1.3,0l1.3,0l1.3,0l1.3,0l1.3,0l1.3,0
				l1.3,0l1.3,0l1.3,0l1.3-0.1l1.3-0.1l1.3-0.1l1.3,0h1.3l1.3,0l1.3-0.1l1.3-0.2l1.3-0.2l1.3-0.1l1.3,0.1l1.3,0.1l1.3,0l1.3-0.1
				l1.3-0.1l1.3-0.1l1.3,0l1.3-0.2l1.3-0.4l1.3-0.4l1.3-0.8l1.3-0.6l1.3-0.2l1.3,0.5l1.3,0.6l1.3,0.3l1.3,0.2l1.3,0.2l1.3,0l1.3-0.1
				l1.3-0.1l1.3,0l1.3,0.1l1.3,0.1l1.3,0l1.3,0h1.3l1.3,0.1l1.3,0l1.3,0.1l1.3,0l1.3,0l1.3,0l1.3,0l1.3,0l1.3,0h1.3l1.3,0l1.3,0.1
				l1.3,0.1l1.3,0.2l1.3,0l1.3,0l1.3-0.1l1.3,0l1.3-0.1l1.3,0l1.3,0l1.3,0l1.3,0.1l1.3,0.1l1.3,0.1l1.3,0.1l1.3,0l1.3,0l1.3,0
				l1.3,0.1l1.3,0.1l1.3,0l1.3,0.1l1.3,0.1l1.3,0.1l1.3,0l1.3,0l1.3,0l1.3,0.1l1.3,0l1.3,0l1.3,0l1.3,0l1.3,0l1.3,0l1.3,0l1.3,0
				l1.3,0l1.3,0l1.3,0.1l1.3,0.1l1.3,0l1.3,0l1.3,0l1.3,0l1.3,0l1.3,0l1.3,0l1.3,0l1.3,0l1.3,0l1.3,0l1.3,0l1.3,0l1.3,0l1.3,0l1.3,0
				l1.3,0l1.3,0l1.3,0l1.3,0l1.3,0l1.3,0l1.3,0l1.3,0l1.3,0l1.3,0l1.3,0l1.3,0l1.3,0l1.3,0l1.3,0l1.3,0l1.3,0l1.3,0l1.3,0l1.3,0
				l1.3-0.1l1.3-0.1l1.3-0.1l1.3-0.1l1.3,0l1.3,0l1.3,0l1.3,0l1.3,0l1.3,0l1.3,0l1.3,0l1.3,0l1.3,0l1.3,0h1.3l1.3,0l1.3,0l1.3,0
				l1.3,0l1.3,0l1.3,0l1.3,0l1.3,0.1l1.3,0.1l1.3,0l1.3,0l1.3,0l1.3,0l1.3,0l1.3,0l1.3,0l1.3,0l1.3,0h1.3l1.3,0l1.3,0l1.3,0l1.3,0
				l1.3,0l1.3,0l1.3,0l1.3,0h1.3l1.3,0l1.3,0l1.3,0l1.3,0l1.3,0l1.3,0h1.3l1.3,0l1.3,0l1.3,0l1.3,0l1.3,0l1.3,0l1.3,0l1.3,0l1.3,0
				l1.3,0l1.3,0l1.3,0h1.3l1.3,0l1.3,0l1.3,0h1.3l1.3,0l1.3,0l1.3,0l1.3,0h1.3h1.3l1.3,0l1.3,0l1.3,0l1.3,0l1.3,0l1.3,0l1.3,0l1.3,0
				l1.3,0l1.3,0l1.3,0l1.3,0l1.3,0l1.3,0l1.3,0l1.3,0l1.3,0l1.3,0h1.3l1.3,0l1.3,0l1.3,0l1.3,0l1.3,0l1.3-0.1l1.3-0.1l1.3-0.1l1.3,0
				l1.3,0l1.3,0l1.3,0l1.3,0l1.3,0l1.3-0.1l1.3-0.1l1.3-0.1l1.3,0l1.3,0l1.3,0l1.3-0.1l1.3-0.2l1.3,0l1.3,0.1l1.3,0.2l1.3,0l1.3-0.1
				l1.3,0l1.3,0l1.3,0.1l1.3,0l1.3,0l1.3,0l1.3,0l1.3,0l1.3,0l1.3,0l1.3,0l1.3,0l1.3,0l1.3,0l1.3,0l1.3,0l1.3,0l1.3,0l1.3,0l1.3,0
				l1.3,0l1.3,0l1.3,0l1.3,0l1.3,0l1.3,0l1.3,0l1.3,0l1.3,0l1.3,0l1.3,0l1.3,0l1.3,0l1.3,0l1.3,0l1.3,0l1.3,0l1.3,0l1.3,0l1.3,0
				l1.3,0l1.3,0l1.3,0l1.3,0l1.3,0l1.3,0l1.3,0l1.3,0l1.3,0l1.3,0l1.3,0l1.3,0l1.3,0l1.3,0l1.3,0l1.3,0l1.3,0l1.3,0l1.3,0l1.3,0
				l1.3,0l1.3,0l1.3,0l1.3,0l1.3,0l1.3,0l1.3,0l1.3,0l1.3,0l1.3,0l1.3,0l1.3-0.1l1.3-0.1l1.3-0.1l1.3-0.1l1.3-0.1l1.3-0.1l1.3-0.1
				l1.3-0.1l1.3-0.1l1.3,0l1.3,0l1.3-0.1l1.3-0.2l1.3-0.2l1.3-0.1l1.3-0.1l1.3-0.1l1.3-0.1l1.3-0.2l1.3-0.1l1.3-0.1l1.3-0.2l1.3-0.2
				l1.3-0.5l1.3-0.4l1.3-0.5l1.3-0.1l1.3-0.2l1.3,0l1.3,0l1.3-0.6l1.3-1.1l1.3-0.8l1.3-0.7l1.3-0.8l1.3-1l1.3-0.9l1.3-1.4l1.3-2.1
				l1.3-2.3l1.3-3.8l1.3-1l1.3,2.5l1.3,5.2l1.3,3.1l1.3-0.7l1.3-1.4l1.3-1.8l1.3-1.9l1.3-0.3l1.3-0.4l1.3,0.9l1.3,1.4l1.3,1l1.3,0.8
				l1.3-0.5l1.3-0.1l1.3-0.1l1.3-0.2l1.3-0.1l1.3-0.3l1.3-0.2l1.3-0.2l1.3-0.4l1.3-0.5l1.3-0.2l1.3,0.1l1.3,0.4l1.3,0.4l1.3,0.3
				l1.3,0.7l1.3,0.8l1.3,0.6l1.3,0.2l1.3,0l1.3,0.2l1.3-0.2l1.3-0.4l1.3,0l1.3,0.2l1.3,0.4l1.3,0.4l1.3,0.6l1.3,0.8l1.3,1.2l1.3,0.7
				l1.3,0.2l1.3-1l1.3-0.9l1.3-0.9l1.3-0.1l1.3,0.1l1.3,0.3l1.3,0l1.3-0.2l1.3-0.3l1.3-0.3l1.3-0.4l1.3-0.3l1.3-0.2l1.3-0.1l1.3,0.1
				l1.3,0.1l1.3,0l1.3,0.1l1.3,0.2l1.3,0.2l1.3-0.3l1.3-0.5l1.3-0.4l1.3-0.3l1.3-0.4l1.3-0.8l1.3-0.7l1.3-0.4l1.3,0.2l1.3,0.5
				l1.3,0.3l1.3-0.1l1.3-0.3l1.3-0.1l1.3,0l1.3,0.1l1.3,0.1l1.3,0.2h1.3l1.3-0.1l1.3-0.2l1.3,0.4l1.3,0.3l1.3,0.2l1.3-0.3l1.3-0.3
				l1.3-0.2l1.3-0.4l1.3-0.6l1.3-0.9l1.3-1.4l1.3-1.9l1.3-2.2l1.3-0.5l1.3-0.4l1.3-0.2l1.3-1.1l1.3-0.6l1.3-1.4l1.3-3.2l1.3-5.9
				l1.3-3.6l1.3-4.2l1.3-3.4l1.3-5.6l1.3-8.6l1.3-9.6l1.3-15.2l1.3-10.9l1.3-11.2l1.3-10.7l1.3-9.6l1.3-5.3l1.3-1.9l1.3,10.1
				l1.3,9.9l1.3,7.7l1.3-2.1l1.3-2.6l1.3,8.9l1.3,10.6l1.3,9.5l1.3,2.9l1.3-1.6l1.3-3.8l1.3-3l1.3-3.6l1.3-1.2l1.3-4.6l1.3-7.8
				l1.3-4.1l1.3-0.2l1.3,1.9l1.3,1.4l1.3-0.9l1.3,3.2l1.3-0.8l1.3,0.9l1.3-0.2l1.3,0.7l1.3,1.3l1.3,0l1.3,0.3l1.3-1.2l1.3-0.1
				l1.3,2.1l1.3,4.7l1.3,5.9l1.3,4.8l1.3,2l1.3,1.5l1.3,1.1l1.3,3.8l1.3,0.8l1.3,3.8l1.3-0.5l1.3,1.8l1.3-3.3l1.3-3.7l1.3-2.8
				l1.3-0.4l1.3,2.1l1.3-0.1l1.3-0.6l1.3-0.3l1.3,1.1l1.3,2.2l1.3,2.9l1.3,1.8l1.3,1.4l1.3,2.6l1.3,5.3l1.3,3.9l1.3,2.4l1.3-0.1
				l1.3,0.5l1.3,1l1.3,1.3l1.3,0.9l1.3-3.4l1.3-2.6l1.3-3.1l1.3,0.3l1.3-0.1l1.3,1.7l1.3,2.2l1.3,1.8l1.3,0.3l1.3,0.4l1.3,0.8
				l1.3,0.4l1.3-0.7l1.3-0.4l1.3,0l1.3,0.1l1.3-0.4l1.3-1l1.3-2.6l1.3-3.3l1.3-4.9l1.3-3l1.3-2.8l1.3-2.9l1.3-3.2l1.3-2.7l1.3-0.3
				l1.3,0.1l1.3,0.3l1.3,2.4l1.3,4l1.3,2.1l1.3-0.2l1.3-1.4l1.3,0.1l1.3,1.2l1.3,0.6l1.3-0.1l1.3-2.6l1.3-3l1.3-1.6l1.3,0.4l1.3,1.1
				l1.3,0.4l1.3-0.1l1.3,0.1l1.3,0.1l1.3,0l1.3,0.1l1.3,0.1l1.3,1.2l1.3,1.2l1.3,1.6l1.3,1l1.3-0.1l1.3-0.3l1.3-0.1l1.3,0.4l1.3,0.1
				l1.3,0.3l1.3,2.3l1.3,3.7l1.3,4.1l1.3,1.7l1.3-0.8l1.3-1.2l1.3-0.5l1.3,0.4l1.3,0l1.3,1.2l1.3,1.5l1.3,1l1.3,0l1.3,0.3l1.3,0.4
				l1.3,0.2l1.3-0.2l1.3,0.8l1.3,2.7l1.3,2.8l1.3,2l1.3-0.3l1.3,0.3l1.3,1.3l1.3,1.6l1.3,1.4l1.3,2.9l1.3,2.3l1.3,0.3l1.3-1.9
				l1.3-1.8l1.3-1.7l1.3-0.9l1.3-0.7l1.3,0.7l1.3,0.3l1.3,1.5l1.3,1.3l1.3,1.1l1.3,0.6l1.3,1.3l1.3,1l1.3-0.3l1.3-0.7l1.3-1.7
				l1.3-2.3l1.3-2.5l1.3-0.5l1.3,0.8l1.3,1.4l1.3,0.9l1.3,0.2l1.3-0.3l1.3-0.7l1.3-0.1l1.3-0.2l1.3,0l1.3,0.1l1.3,0.5l1.3,1.1
				l1.3,0.8l1.3,0.8l1.3,0.3l1.3,1.6l1.3,1.3l1.3,0.6l1.3-0.6l1.3-0.1l1.3,0.6l1.3,0.8l1.3,0.3l1.3,0.3l1.3,1.7l1.3,1.7l1.3,1.4
				l1.3-0.1l1.3,1.1l1.3,3.4l1.3,3.2l1.3,1.7l1.3-0.7l1.3-1.4l1.3-1.5l1.3-2.4l1.3-0.3l1.3,0.7l1.3,2l1.3,0.5l1.3,0.5l1.3-0.1
				l1.3,0.4l1.3-0.1l1.3-0.8l1.3-0.9l1.3-0.8l1.3,0l1.3,0l1.3,0l1.3,0.2l1.3-0.5l1.3-0.7l1.3-1.8l1.3-0.7l1.3-0.8l1.3-0.5l1.3-1.1
				l1.3-0.5l1.3,0.2l1.3,0.8l1.3,1.2l1.3,1.2l1.3,0.8l1.3,0.5l1.3,0.4l1.3,0.5l1.3,0.3l1.3-0.1l1.3-0.5l1.3-0.5l1.3,0.3l1.3,0.8
				l1.3,1l1.3,1.2l1.3,0.4l1.3,0.3l1.3-0.3l1.3-0.4l1.3-0.2l1.3,0.2l1.3,0.5l1.3-0.2l1.3-0.7l1.3-0.5l1.3,0l1.3-0.2l1.3-0.3l1.3-0.3
				l1.3,0.2l1.3,0.2l1.3,0.3l1.3,0.1l1.3-0.1l1.3-0.2l1.3,0l1.3,0.1l1.3,0.3l1.3,0.5l1.3,0.4l1.3,0.3l1.3-0.1l1.3-0.1l1.3-0.2
				l1.3-0.3l1.3-0.5l1.3-0.8l1.3-0.6l1.3-0.2l1.3,0.3l1.3,0.2l1.3-0.2l1.3-0.7l1.3-0.6l1.3-0.3l1.3-0.6l1.3-0.5l1.3-1l1.3-1.3l1.3-1
				l1.3-0.2l1.3,1l1.3,0.6l1.3,0.2l1.3-0.2l1.3-0.5l1.3-0.6l1.3-0.3l1.3,0.3l1.3,0.5l1.3,0.2l1.3,0.2l1.3,0.6l1.3,0.8l1.3,0.5
				l1.3,0.1l1.3,0.3l1.3,1l1.3,1.4l1.3,1.3l1.3,1.1l1.3,0.2l1.3-0.2l1.3-0.5l1.3,0l1.3,0.1l1.3-0.4l1.3-0.5l1.3-0.5l1.3,0l1.3,0.5
				l1.3,0.5l1.3,0.2l1.3,0l1.3,0l1.3,0.1l1.3-0.2l1.3-0.3l1.3-0.3l1.3-0.2l1.3-0.1l1.3-0.2l1.3-0.3l1.3-0.3l1.3-0.2l1.3-0.3l1.3-0.6
				l1.3-0.8l1.3-0.6l1.3-0.6l1.3-0.6l1.3-1l1.3-1.1l1.3-1.8l1.3-0.9l1.3-3.4l1.3-4.3l1.3-3.3l1.3-0.2l1.3,3.8l1.3,2.4l1.3,2.3l1.3,0
				l1.3,0l1.3,0.2l1.3,0.4l1.3,0.4l1.3-1.3l1.3-1.5l1.3-1.9l1.3-0.3l1.3-0.4l1.3-1.2l1.3-1.8l1.3-2.6l1.3-1.7l1.3-2.1l1.3-1l1.3-1.2
				l1.3,0.7l1.3,0.7l1.3,0.2l1.3,0.8l1.3,0.5l1.3,1.1l1.3-0.6l1.3-0.1l1.3-0.1l1.3-0.7l1.3-0.8l1.3-0.7l1.3,0.8l1.3,2.9l1.3,2.7
				l1.3,1.6l1.3-0.7l1.3-0.5l1.3,0.1l1.3,0.4l1.3,0.8l1.3,0.7l1.3,0.8l1.3-0.3l1.3,0l1.3-0.1l1.3,0.3l1.3-0.5l1.3-1.2l1.3-1.5
				l1.3-1.4l1.3-1.5l1.3-0.7l1.3-0.2l1.3,0.4l1.3-0.3l1.3-0.4l1.3,0.4l1.3,1.3l1.3,0.8l1.3,0.2l1.3-0.5l1.3,0l1.3,0l1.3,0.1l1.3,0.2
				l1.3,0.1l1.3-0.1l1.3-0.3l1.3-0.5l1.3,0.2l1.3,0l1.3,0.3l1.3-0.3l1.3-0.2l1.3-0.1l1.3,0l1.3-0.2l1.3-0.3l1.3-0.3l1.3-0.3l1.3-0.9
				l1.3-0.9l1.3-1.3l1.3-0.5l1.3-0.2l1.3,0.5l1.3,0.4l1.3,0.2l1.3-0.5l1.3-0.5l1.3-0.1l1.3,0.2l1.3,0.1l1.3-0.1l1.3,0.4l1.3,0.6
				l1.3,0.6l1.3,0l1.3-0.8l1.3-3.3l1.3-3.5l1.3-3.4l1.3-2.3l1.3-2.2l1.3-1.7l1.3-0.2l1.3-2.2l1.3-5l1.3-6.5l1.3-5.2l1.3-2.2l1.3,4.4
				l1.3,4.6l1.3,4.3l1.3-0.9l1.3-0.5l1.3-1.8l1.3-0.9l1.3-0.7l1.3,1.8l1.3,0.8l1.3,0.4l1.3-0.4l1.3-0.6l1.3-0.6l1.3-0.5l1.3,0.2
				l1.3,0.7l1.3,0.6l1.3,0.1l1.3,0.1l1.3,1.6l1.3,5l1.3,3.4l1.3,1.1l1.3-2.2l1.3-0.6l1.3,0.2l1.3,0.9l1.3,0.5l1.3,0.5l1.3-0.5
				l1.3-0.4l1.3-0.2l1.3,0.3l1.3,0.5l1.3,0.2l1.3,0.1l1.3-1.3l1.3-1.4l1.3-2l1.3-0.9l1.3,0l1.3,0.4l1.3,0.7l1.3,0l1.3,0.1l1.3,0.5
				l1.3,0.2l1.3,0.2l1.3-0.3l1.3-0.2l1.3-0.3l1.3-0.2l1.3-0.2l1.3-0.2l1.3-0.3l1.3-1.1l1.3-0.9l1.3-1l1.3,0l1.3,0.3l1.3-0.2l1.3-0.6
				l1.3-1.5l1.3-1.8l1.3-2.3l1.3-2.2l1.3-1.1l1.3,0.1l1.3,0.3l1.3-0.2l1.3-0.4l1.3,0.2l1.3,0.3l1.3-1l1.3-2l1.3-1.1l1.3-0.4l1.3,0.4
				l1.3,0.1l1.3,0.5l1.3-0.4l1.3-1.6l1.3-1.2l1.3-0.6l1.3-0.1l1.3-0.5l1.3-0.7l1.3-0.3l1.3-0.6l1.3-0.5l1.3-1.4l1.3-4.1l1.3-4.3
				l1.3-4.5l1.3-3.7l1.3-2.9l1.3-4l1.3-4.7l1.3,0.7l1.3,4.5l1.3,7.6l1.3,6.3l1.3,3.5l1.3,3.2l1.3-4.1l1.3-3.1l1.3-4l1.3-0.7l1.3-0.4
				l1.3,0l1.3-0.5l1.3-2.9l1.3-3.9l1.3-4.5l1.3-2.8l1.3-0.2l1.3,0.8l1.3,1.6l1.3,0.1l1.3-1.8l1.3-2.4l1.3-4l1.3-4.4l1.3-4.7l1.3-3.4
				l1.3-2.5l1.3-4.7l1.3-3.7l1.3-2.2l1.3,4.2l1.3,5.6l1.3,1l1.3-3.3l1.3,0.1l1.3,10.5l1.3,7.2l1.3,4.4l1.3,1.7l1.3,3.8l1.3-0.4
				l1.3-4.7l1.3-4.2l1.3-4.3l1.3-4.6l1.3-4l1.3-2.9l1.3-2.5l1.3,0.1l1.3,1l1.3,0.5l1.3-2l1.3-3.2l1.3-2.1l1.3-2.8l1.3-3.4l1.3-3.6
				l1.3-6.1l1.3-7.3l1.3-8.8l1.3-6.6l1.3-10.1l1.3-9.7l1.3-8l1.3,0.5l1.3-3.6l1.3-10.1l1.3-14.6l1.3-20.8l1.3-12.6l1.3-1.5l1.3,3.3
				l1.3-1.9l1.3-16.5l1.3-15.1l1.3-18.7l1.3-14L2014,87l1.3,3.1l1.3,15.8l1.3,14.6l1.3,6.1l1.3-11.6l1.3-6.6l1.3,0.5l1.3,10.2
				l1.3,6.7l1.3,4.1"/>
		</g>
	</g>
	<g transform="translate(88,63) scale(1 1)">
	</g>
</g>
<text transform="matrix(1 0 0 1 999.6987 24)" class="st8 st4 st9">Market Price (USD)</text>
<text transform="matrix(1 0 0 1 1012.2715 47)" class="st10 st4 st5">source: blockchain.info</text>
<g>
	<text transform="matrix(1 0 0 1 84.2494 536)" class="st11 st4 st12">Jan &apos;09</text>
	<text transform="matrix(1 0 0 1 203.072 536)" class="st11 st4 st12">Jul &apos;09</text>
	<text transform="matrix(1 0 0 1 320.9995 536)" class="st11 st4 st12">Jan &apos;10</text>
	<text transform="matrix(1 0 0 1 439.8221 536)" class="st11 st4 st12">Jul &apos;10</text>
	<text transform="matrix(1 0 0 1 557.7496 536)" class="st11 st4 st12">Jan &apos;11</text>
	<text transform="matrix(1 0 0 1 676.5723 536)" class="st11 st4 st12">Jul &apos;11</text>
	<text transform="matrix(1 0 0 1 794.4998 536)" class="st11 st4 st12">Jan &apos;12</text>
	<text transform="matrix(1 0 0 1 913.971 536)" class="st11 st4 st12">Jul &apos;12</text>
	<text transform="matrix(1 0 0 1 1031.8986 536)" class="st11 st4 st12">Jan &apos;13</text>
	<text transform="matrix(1 0 0 1 1150.7212 536)" class="st11 st4 st12">Jul &apos;13</text>
	<text transform="matrix(1 0 0 1 1268.6487 536)" class="st11 st4 st12">Jan &apos;14</text>
	<text transform="matrix(1 0 0 1 1387.4713 536)" class="st11 st4 st12">Jul &apos;14</text>
	<text transform="matrix(1 0 0 1 1505.3988 536)" class="st11 st4 st12">Jan &apos;15</text>
	<text transform="matrix(1 0 0 1 1624.2214 536)" class="st11 st4 st12">Jul &apos;15</text>
	<text transform="matrix(1 0 0 1 1742.1489 536)" class="st11 st4 st12">Jan &apos;16</text>
	<text transform="matrix(1 0 0 1 1861.6201 536)" class="st11 st4 st12">Jul &apos;16</text>
	<text transform="matrix(1 0 0 1 1979.5477 536)" class="st11 st4 st12">Jan &apos;17</text>
	<text transform="matrix(1 0 0 1 2098.3704 536)" class="st11 st4 st12">Jul &apos;17</text>
</g>
<g>
	<text transform="matrix(1 0 0 1 -38.2583 -9999)" class="st11 st4 st12">0.0000</text>
	<text transform="matrix(1 0 0 1 52.1333 446)" class="st11 st4 st12">500</text>
	<text transform="matrix(1 0 0 1 41.6973 370)" class="st11 st4 st12">1,000</text>
	<text transform="matrix(1 0 0 1 41.6973 294)" class="st11 st4 st12">1,500</text>
	<text transform="matrix(1 0 0 1 41.6973 219)" class="st11 st4 st12">2,000</text>
	<text transform="matrix(1 0 0 1 41.6973 143)" class="st11 st4 st12">2,500</text>
	<text transform="matrix(1 0 0 1 41.6973 67)" class="st11 st4 st12">3,000</text>
</g>
<g transform="translate(0,-9999)">
	<path class="st14" d="M4.5,1.5h10c3,0,3,0,3,3v10c0,3,0,3-3,3h-10c-3,0-3,0-3-3v-10C1.5,1.5,1.5,1.5,4.5,1.5"/>
	<path class="st15" d="M4.5,1.5h10c3,0,3,0,3,3v10c0,3,0,3-3,3h-10c-3,0-3,0-3-3v-10C1.5,1.5,1.5,1.5,4.5,1.5"/>
	<path class="st16" d="M4.5,1.5h10c3,0,3,0,3,3v10c0,3,0,3-3,3h-10c-3,0-3,0-3-3v-10C1.5,1.5,1.5,1.5,4.5,1.5"/>
	<path class="st17" d="M3.5,0.5h10c3,0,3,0,3,3v10c0,3,0,3-3,3h-10c-3,0-3,0-3-3v-10C0.5,0.5,0.5,0.5,3.5,0.5"/>
</g>
</svg>
