<?xml version="1.0" encoding="utf-8"?>
<!-- Svg Vector Icons : http://www.onlinewebfonts.com/icon -->
<!DOCTYPE svg PUBLIC "-//W3C//DTD SVG 1.1//EN" "http://www.w3.org/Graphics/SVG/1.1/DTD/svg11.dtd">
<svg version="1.1" xmlns="http://www.w3.org/2000/svg" xmlns:xlink="http://www.w3.org/1999/xlink" x="0px" y="0px" viewBox="0 0 1000 1000" enable-background="new 0 0 1000 1000" xml:space="preserve">
<metadata> Svg Vector Icons : http://www.onlinewebfonts.com/icon </metadata>
<g><g transform="translate(0.000000,511.000000) scale(0.100000,-0.100000)"><path d="M6589.5,4995.5C5948.9,4897.9,5356,4491.2,5038,3934.7c-676.9-1183.5-90.9-2700.9,1201.7-3116.6c1024.5-331.7,2119.4,134,2594.1,1101.7c161.3,324.8,213.5,561.1,213.5,942.7c0,381.6-52.3,617.9-213.5,942.7c-290.8,592.9-808.7,1004-1453.8,1158.5C7193.7,5006.9,6775.8,5025.1,6589.5,4995.5z M6684.9,3975.6l15.9-181.7h90.9h88.6v181.7v181.7h124.9h124.9v-190.8V3778l140.8-29.5c313.5-61.3,431.6-188.5,431.6-454.3c-2.3-124.9-47.7-229.4-122.7-284c-50-36.3-50-38.6-9.1-63.6c231.7-145.4,270.3-206.7,270.3-427.1c0-313.5-149.9-470.2-515.6-538.4l-195.4-36.4v-188.5v-188.5h-124.9h-124.9v193.1v193.1h-88.6h-88.6l-15.9-193.1l-15.9-193.1H6560h-111.3v193.1v190.8l-231.7,6.8l-234,6.8l6.8,102.2c13.6,152.2,34.1,177.2,159,186.3l106.8,6.8l4.6,590.6c4.6,324.8-2.3,604.2-13.6,622.4c-11.4,18.2-72.7,36.3-147.6,43.2l-127.2,9.1v122.7v122.7h238.5h238.5v193.1v193.1H6560h109L6684.9,3975.6z"/><path d="M6698.5,3260v-238.5h138.6c184,0,306.7,38.6,374.8,120.4c70.4,84.1,68.1,156.8-6.8,243.1c-72.7,79.5-179.4,111.3-374.8,113.6h-131.7V3260z"/><path d="M6698.5,2512.7v-263.5h177.2c215.8,0,327.1,29.5,415.7,109c47.7,43.2,68.2,84.1,70.4,136.3c4.5,181.7-115.9,256.7-440.7,272.6l-222.6,9.1V2512.7z"/><path d="M3086.7,3085.1c0-15.9,31.8-127.2,68.1-245.3c36.3-118.1,68.1-215.8,68.1-218.1c0,0-40.9-13.6-93.1-29.5c-454.3-136.3-997.2-533.8-1319.8-965.4c-313.5-420.2-540.6-1060.8-540.6-1524.2V4.9L1573.9-11c168.1-9.1,313.5-11.4,327.1-2.3c11.4,6.8,29.5,86.3,36.3,177.2c70.4,740.5,499.7,1367.5,1156.2,1685.5c333.9,165.8,313.5,170.4,390.7-97.7c36.3-127.2,70.4-229.4,77.2-229.4c20.4,0,690.6,1029,692.8,1063.1c2.3,18.2-227.2,127.2-577,277.1c-318,138.6-581.5,249.9-583.8,249.9C3089,3112.4,3086.7,3098.8,3086.7,3085.1z"/><path d="M8243.2,386.5c-168.1-45.4-306.7-90.9-306.7-104.5c0-11.4,15.9-111.3,31.8-224.9c93.1-615.6-106.8-1251.7-538.4-1719.6c-118.1-127.2-374.8-336.2-413.4-336.2c-11.4,0-72.7,86.3-136.3,193.1c-63.6,106.8-122.7,193.1-131.7,193.1c-20.4,0-422.5-1201.7-408.9-1217.6c13.6-11.4,1272.1-193.1,1281.2-184c4.5,2.3-31.8,65.9-79.5,140.8c-45.4,75-106.8,172.6-134,218.1l-50,81.8l156.7,106.7c202.1,138.6,538.3,486.1,683.7,708.7c304.4,468,454.3,960.9,454.3,1506.1c0,247.6-47.7,631.5-86.3,695.1C8554.4,463.7,8470.4,447.8,8243.2,386.5z"/><path d="M2970.9-249.6c-865.5-102.2-1617.4-708.7-1899-1533.3c-363.5-1067.6,129.5-2271.6,1135.8-2766.8c386.2-188.5,713.3-259,1138.1-236.3c318,15.9,577,79.5,849.6,209C5630.9-3897.7,5958-2025.9,4838.1-906C4461-531.2,4002.2-310.9,3461.5-249.6C3236.7-224.6,3189-224.6,2970.9-249.6z M3775-901.5c279.4-97.7,429.3-193.1,652-415.7c338.5-338.5,474.8-649.7,495.2-1129c13.6-345.3-27.3-545.2-165.8-820c-124.9-247.6-288.5-449.8-483.8-597.4c-870-658.8-2087.6-372.5-2580.5,608.8c-136.3,272.6-197.6,663.3-149.9,972.2c106.8,701.9,599.7,1251.6,1283.4,1424.3c122.7,29.5,227.2,38.6,454.3,34.1C3541-831.1,3597.8-840.2,3775-901.5z"/><path d="M2848.2-1155.9c-245.3-70.4-418-177.2-615.6-374.8c-213.5-213.5-324.8-415.7-381.6-699.6c-68.1-331.7-29.5-608.8,124.9-924.5c329.4-667.8,1172.1-960.9,1846.8-642.9c502,238.5,813.2,722.4,815.5,1276.6c0,245.3-34.1,395.2-147.6,633.8c-170.4,356.6-520.2,640.6-915.4,740.5C3391.1-1101.4,3023.1-1103.7,2848.2-1155.9z M3336.6-1498.9c0-84.1,4.5-88.6,86.3-102.2c238.5-38.6,372.5-124.9,449.8-293c84-179.4,84-179.4-154.5-206.7l-129.5-15.9l-31.8,75c-36.3,86.3-95.4,143.1-168.1,165.8c-52.2,15.9-52.2,15.9-52.2-218.1v-236.3l165.8-47.7c340.7-102.2,470.2-247.6,470.2-529.3c0-172.6-61.3-315.8-163.6-388.4c-79.5-56.8-311.2-134-406.6-134c-65.9,0-65.9-2.3-65.9-124.9c0-122.7,0-124.9-65.9-124.9c-65.9,0-68.1,4.6-75,120.4c-6.8,113.6-9.1,118.1-75,124.9c-247.6,25-454.3,152.2-536.1,333.9c-72.7,156.7-61.3,184,86.3,213.5c174.9,34.1,211.3,31.8,211.3-13.6c0-72.7,90.9-190.8,170.4-224.9c147.7-61.3,147.7-59.1,147.7,227.1v259l-161.3,50c-306.7,90.9-427.1,218.1-445.2,463.4c-25,306.7,131.8,463.4,522.5,524.8c81.8,13.6,84.1,15.9,84.1,102.2s4.6,90.9,68.1,90.9S3336.6-1412.6,3336.6-1498.9z"/><path d="M3039-1896.4c-72.7-38.6-113.6-145.4-90.9-229.4c18.2-70.4,97.7-136.3,190.8-159l61.3-13.6v218.1c0,211.3-2.3,218.1-50,218.1C3120.8-1864.6,3070.8-1878.3,3039-1896.4z"/><path d="M3336.6-2909.6c0-274.9,2.3-277.1,145.4-215.8c95.4,38.6,149.9,115.8,149.9,209c0,97.7-70.4,179.5-193.1,220.4l-102.2,36.3V-2909.6z"/></g></g>
</svg>